<svg width="32" height="31" viewBox="0 0 32 31" fill="none" xmlns="http://www.w3.org/2000/svg">
<path d="M5.28506 24.9454C7.86088 22.3696 11.5583 18.9007 15.1455 15.5433C18.6171 12.0717 22.203 8.71439 24.8904 6.02701L27.1302 3.7872C27.018 3.89942 26.9037 3.78514 26.7921 3.89671C24.5629 4.63203 22.2387 5.02626 19.8986 5.06594C19.2521 5.08019 18.6064 5.03424 17.9697 4.92869C17.3568 4.90814 16.7482 4.82432 16.1538 4.67858L14.4487 4.31755C13.8815 4.19785 13.4258 3.96658 12.8559 3.8443C12.4002 3.61303 11.9472 3.60761 11.6037 3.26412C11.2729 3.18166 10.9646 3.02828 10.7 2.81453C10.4423 2.6816 10.1763 2.56506 9.90356 2.46562C10.1665 2.19849 10.3916 1.89654 10.5722 1.56842C10.7408 1.19971 10.8878 0.821641 11.0123 0.436169C11.2174 0.621509 11.448 0.776546 11.6972 0.896641C11.9264 1.12585 12.1529 1.12791 12.4964 1.47139C12.7256 1.7006 13.2929 1.8203 13.5215 2.04886C13.9772 2.28013 14.3179 2.39777 14.7736 2.62903C15.282 2.85304 15.8171 3.01203 16.3665 3.10228L18.0715 3.46331C18.666 3.60907 19.2745 3.69289 19.8875 3.71343C22.1024 3.86923 24.3308 3.58607 26.445 2.8802C27.1755 2.67477 27.8904 2.41571 28.5837 2.10512L30.3882 1.44601L29.502 3.2478C29.2447 3.91216 29.0253 4.59026 28.8449 5.27879C28.2332 7.41254 27.9522 9.62422 28.0117 11.8363C28.0322 12.4493 28.1161 13.0579 28.2618 13.6523L28.6228 15.3574C28.7425 15.9246 28.9738 16.3803 29.0961 16.9502C29.2464 17.3866 29.4408 17.8061 29.6763 18.2025C29.8198 18.5698 30.0142 18.9148 30.2537 19.2274C30.3793 19.536 30.5762 19.8098 30.8285 20.0266C30.9486 20.2759 31.1036 20.5065 31.289 20.7115C30.9055 20.836 30.5294 20.9827 30.1625 21.1509C29.8344 21.3316 29.5325 21.5566 29.2653 21.8196C29.1659 21.5469 29.0494 21.2809 28.9164 21.0231C28.7995 20.6817 28.5709 20.4531 28.4533 20.1123C28.2854 19.6834 28.0917 19.2652 27.8731 18.8602C27.6491 18.3518 27.4901 17.8167 27.3998 17.2673C27.2148 16.7153 27.0936 16.1432 27.0388 15.5623C26.8931 14.9678 26.8093 14.3593 26.7887 13.7463C26.7812 13.0668 26.6615 12.4996 26.6514 11.8175C26.6474 9.47632 27.0438 7.14752 27.8232 4.93171C27.9354 4.81949 27.8212 4.70521 27.9327 4.59364L25.6949 6.83149C23.1191 9.40731 19.6502 13.1048 16.1786 16.5764C12.8212 20.1623 9.34962 23.6339 6.77651 26.4368C4.31175 29.1237 2.52278 30.9127 2.52278 30.9127C2.32335 30.5863 2.09259 30.2804 1.83374 29.9992C1.55251 29.7403 1.24659 29.5096 0.920273 29.3102C2.30164 27.7835 3.75842 26.3267 5.28506 24.9454Z" fill="white"/>
</svg>
