<svg width="49" height="50" viewBox="0 0 49 50" fill="none" xmlns="http://www.w3.org/2000/svg">
<g clip-path="url(#clip0_205_1275)">
<path d="M24.4556 49.9815C18.1906 49.9815 11.9256 47.5456 7.15538 42.6693C-2.38513 32.9211 -2.38513 17.0603 7.15538 7.31218C16.6959 -2.43593 32.22 -2.43593 41.7559 7.31218C51.2964 17.0603 51.2964 32.9211 41.7559 42.6693C36.9856 47.541 30.7206 49.9815 24.4556 49.9815ZM24.4556 1.30554C18.2644 1.30554 12.4423 3.76909 8.06883 8.24409C-0.968814 17.4801 -0.968814 32.5059 8.06883 41.7374C17.1065 50.9734 31.8094 50.9734 40.847 41.7374C45.2251 37.2624 47.6333 31.3157 47.6333 24.9907C47.6333 18.6657 45.2205 12.7145 40.847 8.24409C36.4689 3.76909 30.6468 1.30554 24.4556 1.30554Z" fill="white"/>
<path d="M25.5862 50C21.2127 50 16.8346 48.3899 13.3745 45.1328C9.83606 41.7973 7.77848 37.2531 7.5801 32.3353C7.38173 27.422 9.07484 22.7209 12.3365 19.104C12.5211 18.8964 12.7102 18.6981 12.904 18.5043C13.1577 18.2459 13.5637 18.2506 13.8174 18.5089C14.0665 18.7673 14.0665 19.1825 13.8128 19.4408C13.6329 19.6207 13.4576 19.8099 13.2869 19.999C10.2559 23.3576 8.68732 27.7219 8.86724 32.2845C9.04716 36.8472 10.9571 41.0684 14.2465 44.164C21.0328 50.5582 31.6436 50.1153 37.8994 43.1814C40.9304 39.8228 42.4989 35.4585 42.319 30.8959C42.1391 26.3332 40.2291 22.112 36.9398 19.0164C34.1902 16.4237 30.767 14.8782 27.0486 14.5506C26.6934 14.5183 26.4304 14.2 26.4627 13.8355C26.495 13.4711 26.8134 13.2035 27.1594 13.2358C31.1638 13.591 34.8499 15.2518 37.8117 18.043C41.3502 21.3784 43.4077 25.9226 43.6061 30.8405C43.7999 35.7584 42.1114 40.4548 38.8451 44.0764C35.2974 48.007 30.4487 50 25.5862 50Z" fill="white"/>
<path d="M20.3407 17.6185C19.6118 17.6185 18.929 17.3279 18.4169 16.8019C17.3558 15.7178 17.3558 13.9508 18.4169 12.8667C19.478 11.7826 21.2034 11.7826 22.2691 12.8667C23.3302 13.9508 23.3302 15.7178 22.2691 16.8019C21.7524 17.3279 21.0696 17.6185 20.3407 17.6185ZM20.3407 13.3742C19.9716 13.3742 19.6072 13.5172 19.3257 13.8032C18.7675 14.3753 18.7675 15.3026 19.3257 15.8746C19.8655 16.4282 20.8113 16.4282 21.351 15.8746C21.9092 15.3026 21.9092 14.3753 21.351 13.8032C21.0742 13.5172 20.7098 13.3742 20.3407 13.3742Z" fill="white"/>
</g>
<defs>
<clipPath id="clip0_205_1275">
<rect width="48.9112" height="50" fill="white"/>
</clipPath>
</defs>
</svg>
