<svg width="52" height="50" viewBox="0 0 52 50" fill="none" xmlns="http://www.w3.org/2000/svg">
<g clip-path="url(#clip0_205_1286)">
<path d="M18.8765 50C8.46984 50 0 41.3133 0 30.6369C0 19.9605 8.46984 11.2738 18.8765 11.2738C29.2831 11.2738 37.7529 19.9605 37.7529 30.6369C37.7529 41.3133 29.2879 50 18.8765 50ZM18.8765 12.6469C9.21179 12.6469 1.34901 20.7169 1.34901 30.6369C1.34901 40.5569 9.21179 48.6269 18.8813 48.6269C28.5508 48.6269 36.4136 40.5569 36.4136 30.6369C36.4088 20.7169 28.5411 12.6469 18.8765 12.6469Z" fill="white"/>
<path d="M36.0128 38.4226C35.6948 38.4226 35.4106 38.1914 35.3527 37.8589C35.2853 37.4831 35.5262 37.1266 35.8923 37.0592C44.208 35.4982 50.2496 28.0594 50.2496 19.3679C50.2496 9.44787 42.3869 1.37791 32.7174 1.37791C23.0479 1.37791 15.1899 9.44787 15.1899 19.3631C15.1899 23.6462 16.6834 27.7944 19.3911 31.0464C19.632 31.3355 19.5983 31.7691 19.314 32.0148C19.0297 32.2606 18.6058 32.2268 18.3649 31.9378C15.4501 28.44 13.8457 23.9738 13.8457 19.3631C13.8409 8.68664 22.3107 0 32.7174 0C43.124 0 51.5938 8.68664 51.5938 19.3631C51.5938 28.7194 45.0945 36.7316 36.1332 38.413C36.0947 38.4178 36.0562 38.4226 36.0128 38.4226Z" fill="white"/>
<path d="M21.7578 36.1293C20.5966 36.1293 19.6523 35.1609 19.6523 33.9709C19.6523 32.7809 20.5966 31.8125 21.7578 31.8125C22.9189 31.8125 23.8632 32.7809 23.8632 33.9709C23.8632 35.1609 22.9189 36.1293 21.7578 36.1293ZM21.7578 33.1904C21.3386 33.1904 20.9965 33.5421 20.9965 33.9709C20.9965 34.3997 21.3386 34.7514 21.7578 34.7514C22.1769 34.7514 22.519 34.3997 22.519 33.9709C22.519 33.5421 22.1769 33.1904 21.7578 33.1904Z" fill="white"/>
</g>
<defs>
<clipPath id="clip0_205_1286">
<rect width="51.5947" height="50" fill="white"/>
</clipPath>
</defs>
</svg>
