<svg width="31" height="50" viewBox="0 0 31 50" fill="none" xmlns="http://www.w3.org/2000/svg">
<g clip-path="url(#clip0_205_1296)">
<path d="M15.3779 37.7583C15.2571 37.7583 15.1404 37.7208 15.0362 37.6458C14.8362 37.5 10.0946 33.9625 5.71541 27.7708C5.52791 27.5041 5.58625 27.1333 5.84458 26.9375C6.10291 26.7458 6.46958 26.8041 6.65708 27.0708C10.2571 32.1583 14.2029 35.4791 15.3737 36.4083C16.5362 35.4583 20.4696 32.0708 24.0779 26.8416C24.2612 26.5708 24.6279 26.5083 24.8904 26.7C25.1529 26.8875 25.2154 27.2625 25.0321 27.5291C20.6446 33.8833 15.9279 37.4875 15.7279 37.6375C15.6196 37.7208 15.4987 37.7583 15.3779 37.7583Z" fill="white"/>
<path d="M26.325 25.5958C26.2083 25.5958 26.0917 25.5625 25.9917 25.4875C25.7292 25.3 25.6667 24.925 25.85 24.6583C28.3292 21.0667 29.5875 18.0542 29.5875 15.7167C29.5875 7.70833 23.2125 1.19167 15.375 1.19167C7.54167 1.19167 1.16667 7.70417 1.16667 15.7125C1.16667 18.2083 2.35417 21.0458 4.90417 24.65C5.09167 24.9167 5.03333 25.2875 4.775 25.4833C4.5125 25.675 4.15 25.6167 3.9625 25.35C1.25833 21.5333 0 18.4708 0 15.7125C0 7.05 6.9 0 15.3792 0C23.8583 0 30.7583 7.05 30.7583 15.7125C30.7583 18.3042 29.4292 21.5417 26.8042 25.3417C26.6875 25.5083 26.5083 25.5958 26.325 25.5958Z" fill="white"/>
<path d="M15.3792 50C6.9 50 0 42.95 0 34.2875C0 30.675 2.5375 25.8833 7.54167 20.0416C11.225 15.7416 14.9583 12.4208 14.9958 12.3916C15.2167 12.1958 15.5417 12.1958 15.7583 12.3916C16.3708 12.9333 30.7542 25.7666 30.7542 34.2916C30.7542 42.95 23.8583 50 15.3792 50ZM15.3792 13.6333C13.075 15.7458 1.16667 27.0375 1.16667 34.2875C1.16667 42.2958 7.54167 48.8083 15.3792 48.8083C23.2167 48.8083 29.5917 42.2916 29.5917 34.2875C29.5917 27.0333 17.6792 15.7458 15.3792 13.6333Z" fill="white"/>
<path d="M15.3783 46.4291C15.0574 46.4291 14.7949 46.1624 14.7949 45.8333V33.4541C14.7949 33.1249 15.0574 32.8583 15.3783 32.8583C15.6991 32.8583 15.9616 33.1249 15.9616 33.4541V45.8333C15.9574 46.1624 15.6991 46.4291 15.3783 46.4291Z" fill="white"/>
<path d="M15.3784 28.9792C14.0034 28.9792 12.8867 27.8375 12.8867 26.4292C12.8867 25.025 14.0076 23.8792 15.3784 23.8792C16.7492 23.8792 17.8701 25.0208 17.8701 26.4292C17.8701 27.8375 16.7534 28.9792 15.3784 28.9792ZM15.3784 25.075C14.6451 25.075 14.0492 25.6833 14.0492 26.4333C14.0492 27.1833 14.6451 27.7916 15.3784 27.7916C16.1117 27.7916 16.7076 27.1833 16.7076 26.4333C16.7034 25.6833 16.1076 25.075 15.3784 25.075Z" fill="white"/>
</g>
<defs>
<clipPath id="clip0_205_1296">
<rect width="30.7542" height="50" fill="white"/>
</clipPath>
</defs>
</svg>
