<svg width="30" height="30" viewBox="0 0 30 30" fill="none" xmlns="http://www.w3.org/2000/svg">
<g clip-path="url(#clip0_212_25102)">
<path d="M28.0371 0H24.9475C24.7047 0 24.508 0.196758 24.508 0.439453C24.508 0.682148 24.7047 0.878906 24.9475 0.878906H28.0371C28.6348 0.878906 29.1211 1.36518 29.1211 1.96289V4.6875H0.878906V1.96289C0.878906 1.36518 1.36518 0.878906 1.96289 0.878906H22.9282C23.4952 0.867305 23.522 0.0220898 22.9282 0H1.96295C0.880547 0 0 0.880547 0 1.96289V21.7676C0 22.8499 0.880547 23.7305 1.96289 23.7305H8.44523L8.37352 24.4542C8.32389 24.8399 8.66045 25.2056 9.04465 25.1977C9.10605 25.2848 11.4075 24.2314 11.5311 24.199L11.8549 25.625C11.9404 26.0019 12.2701 26.2652 12.6567 26.2652H13.0462C12.9897 27.0369 12.4016 27.2955 11.4999 27.3432C10.8033 27.3725 10.2828 27.3346 9.86186 27.2236C9.62713 27.1617 9.38684 27.3018 9.32496 27.5365C9.26309 27.7713 9.40318 28.0116 9.63791 28.0735C10.042 28.18 10.5062 28.2315 11.0749 28.2315C12.5372 28.2816 13.8677 27.7649 13.9252 26.2652H16.0751C16.1491 27.5573 17.0815 28.1611 18.4637 28.2213C19.9952 28.2858 20.5922 28.0277 21.1694 27.7782C23.3381 26.7705 24.9772 27.5648 26.4685 29.1211H3.5315C4.45617 28.1398 6.00293 26.9753 7.69629 27.4133C8.27391 27.4998 8.42068 26.6701 7.85514 26.5488C5.4382 25.9314 3.2891 27.9555 2.41922 29.0491C2.27473 29.2245 2.2452 29.4612 2.34217 29.6668C2.43914 29.8723 2.6407 30.0001 2.86811 30.0001H27.1319C27.3593 30.0001 27.5608 29.8724 27.6578 29.6668C27.7548 29.4612 27.7253 29.2246 27.5808 29.0491C26.8888 28.2084 25.0445 26.2729 22.8683 26.4549C21.8103 26.5436 21.2845 26.7709 20.8206 26.9715C20.2898 27.201 19.8316 27.3993 18.5007 27.3431C17.6005 27.2958 17.0096 27.0365 16.9541 26.2652H17.3434C17.7299 26.2652 18.0596 26.0019 18.1451 25.625L18.4689 24.1989C18.5997 24.2341 20.8886 25.2829 20.9554 25.1976C21.3396 25.2055 21.6762 24.8399 21.6266 24.4542L21.5549 23.7304H28.0371C29.1195 23.7304 30 22.8499 30 21.7675V1.96283C30 0.880547 29.1195 0 28.0371 0ZM9.28189 24.2001L9.35918 23.4202C9.39773 23.0309 9.57949 22.6729 9.87094 22.4119L10.8696 21.518C11.0375 22.2717 11.1993 22.912 11.3114 23.3372L9.28189 24.2001ZM12.7702 10.5848H17.2297C20.0619 14.8934 18.7774 19.2837 17.781 23.3269H12.2188C11.2181 19.2676 9.94148 14.8907 12.7702 10.5848ZM13.3607 9.70588C14.0404 8.76996 14.6856 8.11605 14.9997 7.83973C15.3144 8.11652 15.9596 8.77031 16.6392 9.70588H13.3607ZM17.298 25.3863H12.702L12.4339 24.2058H17.5661L17.298 25.3863ZM18.6885 23.3373C18.8006 22.912 18.9624 22.2718 19.1303 21.518L20.129 22.412C20.4205 22.6729 20.6022 23.031 20.6408 23.4203L20.718 24.2002L18.6885 23.3373ZM29.1211 21.7676C29.1211 22.3653 28.6348 22.8516 28.0371 22.8516H21.4175C21.2879 22.4327 21.0474 22.0545 20.7152 21.7571L19.3398 20.526C20.2988 16.2222 19.9393 13.0682 17.7809 9.81375C16.7434 8.22422 15.6145 7.14258 15.2674 6.94148C15.1024 6.84604 14.8972 6.84604 14.7319 6.94166C12.6939 8.5275 10.0899 12.4438 10.139 16.2284C10.1389 17.5354 10.3822 19.1302 10.6601 20.526L9.28477 21.7572C8.95254 22.0546 8.71207 22.4328 8.58246 22.8516H1.96289C1.36518 22.8516 0.878906 22.3654 0.878906 21.7676V5.56641H29.1211V21.7676Z" fill="#1E1E1E"/>
<path d="M2.97266 2.76398C2.97266 3.52323 3.59035 4.14093 4.34961 4.14093C6.17381 4.07173 6.17334 1.45599 4.34961 1.38702C3.59035 1.38702 2.97266 2.00472 2.97266 2.76398ZM4.84766 2.76398C4.84766 3.03861 4.62424 3.26202 4.34961 3.26202C3.69043 3.23865 3.69061 2.28925 4.34961 2.26593C4.62424 2.26593 4.84766 2.48935 4.84766 2.76398Z" fill="#1E1E1E"/>
<path d="M6.41016 2.76398C6.41016 3.52323 7.02785 4.14093 7.78711 4.14093C9.61131 4.07173 9.61084 1.45599 7.78711 1.38702C7.02785 1.38702 6.41016 2.00472 6.41016 2.76398ZM8.28516 2.76398C8.28516 3.03861 8.06174 3.26202 7.78711 3.26202C7.12793 3.23865 7.12811 2.28925 7.78711 2.26593C8.06174 2.26593 8.28516 2.48935 8.28516 2.76398Z" fill="#1E1E1E"/>
<path d="M9.84766 2.76398C9.84766 3.52323 10.4654 4.14093 11.2246 4.14093C13.0488 4.07173 13.0483 1.45599 11.2246 1.38702C10.4654 1.38702 9.84766 2.00472 9.84766 2.76398ZM11.7227 2.76398C11.7227 3.03861 11.4992 3.26202 11.2246 3.26202C10.5654 3.23865 10.5656 2.28925 11.2246 2.26593C11.4992 2.26593 11.7227 2.48935 11.7227 2.76398Z" fill="#1E1E1E"/>
<path d="M15 18.9404C16.2439 18.9404 17.2559 17.9284 17.2559 16.6845C17.1424 13.696 12.8571 13.6968 12.7441 16.6845C12.7441 17.9284 13.7561 18.9404 15 18.9404ZM15 15.3076C15.7593 15.3076 16.377 15.9253 16.377 16.6845C16.3078 18.5087 13.692 18.5083 13.623 16.6845C13.623 15.9253 14.2407 15.3076 15 15.3076Z" fill="#1E1E1E"/>
<path d="M3.00193 9.16663H8.48273C8.72548 9.16663 8.92218 8.96987 8.92218 8.72717C8.92218 8.48448 8.72548 8.28772 8.48273 8.28772H3.00193C2.42267 8.30495 2.4198 9.1484 3.00193 9.16663Z" fill="#1E1E1E"/>
<path d="M3.00195 11.0585H6.93224C7.51197 11.041 7.51396 10.1977 6.93224 10.1796H3.00195C2.42222 10.197 2.42023 11.0404 3.00195 11.0585Z" fill="#1E1E1E"/>
<path d="M3.00195 14.9707H5.47191C6.05211 14.9531 6.05328 14.1098 5.47191 14.0918H3.00195C2.7592 14.0918 2.5625 14.2886 2.5625 14.5312C2.5625 14.7739 2.75926 14.9707 3.00195 14.9707Z" fill="#1E1E1E"/>
<path d="M24.1855 11.6714H26.998C27.5781 11.6538 27.5795 10.8105 26.998 10.7925H24.1855C23.9428 10.7925 23.7461 10.9892 23.7461 11.2319C23.7461 11.4746 23.9428 11.6714 24.1855 11.6714Z" fill="#1E1E1E"/>
<path d="M24.1855 13.5825H26.998C27.5781 13.5649 27.5795 12.7217 26.998 12.7036H24.1855C23.9428 12.7036 23.7461 12.9004 23.7461 13.1431C23.7461 13.3858 23.9428 13.5825 24.1855 13.5825Z" fill="#1E1E1E"/>
<path d="M24.1855 15.4935H26.998C27.5781 15.476 27.5795 14.6327 26.998 14.6146H24.1855C23.9428 14.6146 23.7461 14.8114 23.7461 15.0541C23.7461 15.2968 23.9428 15.4935 24.1855 15.4935Z" fill="#1E1E1E"/>
</g>
<defs>
<clipPath id="clip0_212_25102">
<rect width="30" height="30" fill="white"/>
</clipPath>
</defs>
</svg>
