<svg width="30" height="30" viewBox="0 0 30 30" fill="none" xmlns="http://www.w3.org/2000/svg">
<g clip-path="url(#clip0_212_25291)">
<path d="M12.0158 3.45293C11.9068 3.34395 11.7557 3.28125 11.6016 3.28125C11.4475 3.28125 11.2963 3.34389 11.1873 3.45293C11.0783 3.56191 11.0156 3.71309 11.0156 3.86719C11.0156 4.02129 11.0783 4.17246 11.1873 4.28139C11.2963 4.39043 11.4475 4.45312 11.6016 4.45312C11.7557 4.45312 11.9068 4.39043 12.0158 4.28139C12.1248 4.17246 12.1875 4.02129 12.1875 3.86719C12.1875 3.71309 12.1248 3.56191 12.0158 3.45293Z" fill="#1E1E1E"/>
<path d="M9.43592 3.28125H7.08203C6.75842 3.28125 6.49609 3.54363 6.49609 3.86719C6.49609 4.19074 6.75842 4.45312 7.08203 4.45312H9.43592C9.75953 4.45312 10.0219 4.19074 10.0219 3.86719C10.0219 3.54363 9.75953 3.28125 9.43592 3.28125Z" fill="#1E1E1E"/>
<path d="M9.9059 6.5625H7.08203C6.75842 6.5625 6.49609 6.82488 6.49609 7.14844C6.49609 7.47199 6.75842 7.73438 7.08203 7.73438H9.9059C10.2295 7.73438 10.4918 7.47199 10.4918 7.14844C10.4918 6.82488 10.2295 6.5625 9.9059 6.5625Z" fill="#1E1E1E"/>
<path d="M29.7738 12.1944C29.7739 12.1942 29.774 12.1941 29.7741 12.1939L25.9069 9.1824C25.9041 9.18029 25.9012 9.17859 25.8984 9.17648V8.55469C25.8984 8.23113 25.6361 7.96875 25.3125 7.96875C24.9889 7.96875 24.7266 8.23113 24.7266 8.55469V16.5039C24.7266 16.5075 24.727 16.511 24.7271 16.5145L19.8787 21.3629L19.3174 20.8529C18.44 20.0558 17.3708 19.5244 16.225 19.3024L17.7463 17.7811C17.9752 17.5523 17.9752 17.1813 17.7463 16.9524L15.7782 14.9842L24.3554 11.3275C24.5344 11.2511 24.6639 11.0909 24.7008 10.8998C24.7378 10.7087 24.6775 10.5117 24.5399 10.3741L21.7392 7.5733C21.9762 7.18641 22.1033 6.74086 22.1033 6.27562C22.1033 5.61035 21.8443 4.98498 21.3739 4.51453C20.9035 4.04414 20.2781 3.7851 19.6128 3.7851C19.1476 3.7851 18.702 3.91219 18.3151 4.14926L15.5143 1.34848C15.3766 1.21078 15.1798 1.15031 14.9885 1.18758C14.7974 1.22461 14.6372 1.35416 14.5609 1.53322L10.6122 10.8071L8.48689 12.9324C7.88971 13.5296 7.56076 14.3237 7.56076 15.1682C7.56076 16.0128 7.88971 16.8068 8.48689 17.404C9.08408 18.0012 9.87815 18.3301 10.7227 18.3301C11.5673 18.3301 12.3613 18.0012 12.9585 17.404L13.182 17.1805L15.189 19.1876C15.1261 19.1858 15.063 19.1845 14.9999 19.1845C13.4 19.1845 11.8667 19.7769 10.6825 20.8528L10.1211 21.3627L5.27273 16.5144C5.27279 16.5108 5.27326 16.5073 5.27326 16.5037V1.17188H11.835C12.1586 1.17188 12.4209 0.909492 12.4209 0.585938C12.4209 0.262383 12.1586 0 11.835 0H4.6875C4.36389 0 4.10156 0.262383 4.10156 0.585938V9.08285C4.09652 9.08666 4.09119 9.08994 4.08627 9.09393L0.219082 12.1994C0.219141 12.1995 0.219141 12.1996 0.219199 12.1997C0.0856641 12.3071 0 12.4716 0 12.6562V27.0117C0 28.6594 1.34051 30 2.98828 30H27.0117C28.6595 30 30 28.6594 30 27.0117V12.6562C30 12.4684 29.9113 12.3016 29.7738 12.1944ZM25.8984 10.6611L28.5307 12.7109L25.8984 15.3432V10.6611ZM19.6129 4.95709C19.9651 4.95709 20.2962 5.09426 20.5453 5.34334C20.7943 5.59236 20.9315 5.92348 20.9315 6.27574C20.9315 6.42105 20.9069 6.56232 20.862 6.69621L19.1924 5.02658C19.3263 4.98164 19.4675 4.95709 19.6129 4.95709ZM15.2993 2.79076L17.8511 5.34252C17.8513 5.34275 17.8515 5.34305 17.8518 5.34334C17.852 5.34363 17.8523 5.34381 17.8526 5.34404L20.5453 8.03672L20.5453 8.03684L20.5454 8.03689L23.0981 10.5896L21.8542 11.1199L14.7694 4.03518L15.2993 2.79076ZM14.2745 5.19762L20.6921 11.6153L14.8853 14.091L11.8011 11.0068L14.2745 5.19762ZM12.13 16.5755C11.7541 16.9513 11.2544 17.1584 10.7228 17.1584C10.1913 17.1584 9.69152 16.9513 9.31564 16.5755C8.93977 16.1996 8.73275 15.6999 8.73275 15.1683C8.73275 14.6368 8.93977 14.137 9.31564 13.7612L11.1069 11.9699L13.9211 14.7844L12.13 16.5755ZM14.0107 16.352L14.7497 15.6131L16.5034 17.3668L15.7644 18.1057L14.0107 16.352ZM4.10156 10.5846V15.3432L1.46232 12.704L4.10156 10.5846ZM2.18736 28.5703C2.17078 28.5853 2.15549 28.6013 2.14102 28.6177C1.56521 28.3127 1.17188 27.7075 1.17188 27.0117V14.0709L9.25283 22.1518L2.18736 28.5703ZM3.64629 28.8281L5.58129 27.0703H9.88225C10.2059 27.0703 10.4682 26.8079 10.4682 26.4844C10.4682 26.1608 10.2059 25.8984 9.88225 25.8984H6.87129L11.4706 21.7202C13.4827 19.8924 16.5173 19.8924 18.5295 21.7202L26.3537 28.8281H3.64629ZM28.8281 27.0117C28.8281 27.7075 28.4348 28.3127 27.859 28.6177C27.8445 28.6012 27.8292 28.5853 27.8126 28.5703L20.7472 22.1518L28.8281 14.0709V27.0117Z" fill="#1E1E1E"/>
<path d="M25.75 0.194756C25.5212 -0.0339941 25.1502 -0.0339941 24.9214 0.194756L22.5544 2.56171C22.3256 2.79052 22.3256 3.16153 22.5544 3.3904C22.6689 3.50478 22.8188 3.56202 22.9687 3.56202C23.1187 3.56202 23.2687 3.50478 23.3831 3.3904L25.75 1.02345C25.9788 0.794639 25.9788 0.423623 25.75 0.194756Z" fill="#1E1E1E"/>
<path d="M20.7656 0C20.442 0 20.1797 0.262383 20.1797 0.585938V1.76291C20.1797 2.08646 20.442 2.34885 20.7656 2.34885C21.0892 2.34885 21.3516 2.08646 21.3516 1.76291V0.585938C21.3516 0.262383 21.0892 0 20.7656 0Z" fill="#1E1E1E"/>
<path d="M25.3531 4.54224H24.1367C23.8131 4.54224 23.5508 4.80462 23.5508 5.12817C23.5508 5.45173 23.8131 5.71411 24.1367 5.71411H25.3531C25.6767 5.71411 25.939 5.45173 25.939 5.12817C25.939 4.80462 25.6767 4.54224 25.3531 4.54224Z" fill="#1E1E1E"/>
<path d="M12.6994 26.0701C12.5898 25.9611 12.4393 25.8984 12.2852 25.8984C12.1305 25.8984 11.9799 25.9611 11.8703 26.0701C11.7613 26.1791 11.6992 26.3303 11.6992 26.4844C11.6992 26.6385 11.7613 26.7896 11.8703 26.8986C11.9799 27.0076 12.1311 27.0703 12.2852 27.0703C12.4393 27.0703 12.5898 27.0076 12.6994 26.8986C12.8084 26.7896 12.8711 26.6385 12.8711 26.4844C12.8711 26.3303 12.8084 26.1791 12.6994 26.0701Z" fill="#1E1E1E"/>
</g>
<defs>
<clipPath id="clip0_212_25291">
<rect width="30" height="30" fill="white"/>
</clipPath>
</defs>
</svg>
