<svg width="41" height="30" viewBox="0 0 41 30" fill="none" xmlns="http://www.w3.org/2000/svg">
<path d="M6.37392 13.7485C10.0167 13.7485 15.084 13.9101 19.9946 14.0727C24.9042 14.0727 29.8138 14.2343 33.6143 14.2343H36.7819C36.6232 14.2343 36.6232 14.0727 36.4654 14.0727C34.3691 13.0163 32.4469 11.6516 30.7641 10.025C30.2969 9.57794 29.8728 9.08885 29.4973 8.56402C29.0784 8.11605 28.7073 7.62647 28.3901 7.10308L27.4397 5.64214C27.1232 5.15638 26.9645 4.67062 26.648 4.18121C26.4893 3.69544 26.1728 3.3713 26.1728 2.88554C25.9972 2.59327 25.8877 2.26681 25.8518 1.92862C25.7635 1.65236 25.6578 1.38186 25.5353 1.11871C25.9101 1.11578 26.2827 1.06139 26.6425 0.957096C27.0225 0.815626 27.3937 0.652207 27.7543 0.467682C27.7683 0.74372 27.8217 1.01641 27.913 1.27759C27.913 1.60174 28.0717 1.76335 28.0717 2.24911C28.0717 2.57326 28.3882 3.05902 28.3882 3.38225C28.5469 3.86802 28.7047 4.19216 28.8634 4.67792C29.0644 5.19577 29.3304 5.68659 29.6551 6.13886L30.6054 7.5998C30.9227 8.1232 31.2937 8.61278 31.7126 9.06074C33.1686 10.7371 34.9446 12.1126 36.9387 13.1085C37.6005 13.4797 38.2892 13.802 38.9991 14.0727L40.7411 14.8826L38.8404 15.53C38.1886 15.8178 37.554 16.1422 36.9396 16.5015C34.9983 17.5777 33.2357 18.9429 31.7136 20.5492C31.2947 20.9972 30.9236 21.4867 30.6063 22.0101L29.656 23.4711C29.3395 23.9568 29.1808 24.4426 28.8643 24.932C28.662 25.3469 28.5028 25.781 28.3891 26.2277C28.2308 26.589 28.1243 26.9704 28.0727 27.3608C27.9432 27.6678 27.8889 28.0007 27.9139 28.3323C27.8226 28.5935 27.7692 28.8662 27.7552 29.1423C27.396 28.9591 27.0263 28.7969 26.648 28.6565C26.2883 28.5522 25.9157 28.4978 25.5408 28.4949C25.6633 28.2317 25.769 27.9612 25.8573 27.685C26.016 27.3608 26.016 27.0376 26.1738 26.7134C26.3584 26.2914 26.5171 25.8588 26.649 25.4178C26.85 24.8999 27.116 24.4091 27.4406 23.9568C27.7001 23.4356 28.019 22.9455 28.391 22.4959C28.7083 21.9725 29.0793 21.483 29.4982 21.035C29.9734 20.5492 30.2899 20.0634 30.765 19.574C32.4177 17.9157 34.3446 16.5493 36.4626 15.5336C36.6213 15.5336 36.6213 15.372 36.7791 15.372H33.6143C29.9715 15.372 24.9042 15.5336 19.9946 15.5336C15.085 15.6952 10.1754 15.6952 6.37392 15.8578C2.73117 16.0148 0.201172 16.0148 0.201172 16.0148C0.290899 15.643 0.344047 15.2636 0.359873 14.8817C0.344047 14.4998 0.290899 14.1203 0.201172 13.7485C2.25745 13.6458 4.31765 13.6458 6.37392 13.7485Z" fill="white"/>
</svg>
