<svg width="30" height="22" viewBox="0 0 30 22" fill="none" xmlns="http://www.w3.org/2000/svg">
<path d="M5.1548 10.4497C7.74961 10.4497 11.3592 10.5649 14.8571 10.6806C18.3543 10.6806 21.8515 10.7958 24.5587 10.7958H26.815C26.702 10.7958 26.702 10.6806 26.5896 10.6806C25.0964 9.92819 23.7271 8.95606 22.5285 7.79736C22.1957 7.47894 21.8936 7.13055 21.6261 6.7567C21.3277 6.4376 21.0634 6.08887 20.8374 5.71604L20.1604 4.67539C19.935 4.32937 19.8219 3.98335 19.5965 3.63473C19.4834 3.28871 19.258 3.05781 19.258 2.71179C19.1329 2.50361 19.0549 2.27106 19.0293 2.03016C18.9664 1.83338 18.8911 1.64069 18.8039 1.45325C19.0709 1.45116 19.3363 1.41241 19.5925 1.33812C19.8632 1.23735 20.1277 1.12094 20.3845 0.989502C20.3944 1.18613 20.4325 1.38037 20.4976 1.56642C20.4976 1.79731 20.6106 1.91244 20.6106 2.25846C20.6106 2.48935 20.8361 2.83537 20.8361 3.06562C20.9491 3.41164 21.0615 3.64253 21.1745 3.98855C21.3178 4.35743 21.5072 4.70705 21.7385 5.02921L22.4154 6.06987C22.6414 6.4427 22.9057 6.79143 23.2041 7.11053C24.2413 8.30461 25.5063 9.28441 26.9268 9.9938C27.3982 10.2583 27.8887 10.4878 28.3944 10.6806L29.6353 11.2576L28.2814 11.7187C27.8171 11.9237 27.3651 12.1548 26.9274 12.4107C25.5446 13.1774 24.289 14.1498 23.2048 15.294C22.9064 15.6131 22.6421 15.9618 22.4161 16.3347L21.7391 17.3753C21.5137 17.7213 21.4006 18.0674 21.1752 18.416C21.0311 18.7115 20.9177 19.0207 20.8367 19.3389C20.724 19.5963 20.6481 19.868 20.6113 20.1461C20.5191 20.3647 20.4804 20.6019 20.4982 20.8381C20.4332 21.0242 20.3951 21.2184 20.3852 21.415C20.1293 21.2846 19.866 21.1691 19.5965 21.069C19.3402 20.9947 19.0748 20.956 18.8078 20.9539C18.8951 20.7664 18.9704 20.5738 19.0332 20.377C19.1463 20.1461 19.1463 19.9158 19.2587 19.6849C19.3902 19.3843 19.5032 19.0761 19.5971 18.762C19.7404 18.3931 19.9298 18.0435 20.1611 17.7213C20.3459 17.3501 20.573 17.0009 20.838 16.6807C21.0641 16.3079 21.3284 15.9591 21.6267 15.64C21.9652 15.294 22.1906 14.948 22.5291 14.5994C23.7063 13.4181 25.0789 12.4448 26.5876 11.7213C26.7007 11.7213 26.7007 11.6062 26.8131 11.6062H24.5587C21.9639 11.6062 18.3543 11.7213 14.8571 11.7213C11.3599 11.8364 7.86266 11.8364 5.1548 11.9522C2.55998 12.0641 0.757813 12.0641 0.757813 12.0641C0.821727 11.7993 0.859586 11.5289 0.870859 11.2569C0.859586 10.9849 0.821727 10.7146 0.757813 10.4497C2.22254 10.3766 3.69007 10.3766 5.1548 10.4497Z" fill="#1E1E1E"/>
</svg>
