<svg width="34" height="24" viewBox="0 0 34 24" fill="none" xmlns="http://www.w3.org/2000/svg">
<path d="M5.16646 11.1158C8.21536 11.1158 12.4566 11.2511 16.5666 11.3871C20.6759 11.3871 24.7851 11.5224 27.9661 11.5224H30.6173C30.4844 11.5224 30.4844 11.3871 30.3524 11.3871C28.5979 10.503 26.989 9.3607 25.5805 7.99924C25.1895 7.62509 24.8345 7.21573 24.5202 6.77646C24.1696 6.40152 23.859 5.99176 23.5935 5.55369L22.7981 4.33091C22.5332 3.92434 22.4003 3.51777 22.1355 3.10814C22.0026 2.70157 21.7377 2.43026 21.7377 2.02369C21.5907 1.77907 21.499 1.50583 21.469 1.22277C21.3951 0.991552 21.3066 0.765149 21.2041 0.544899C21.5178 0.542442 21.8297 0.496919 22.1308 0.409629C22.4488 0.291222 22.7596 0.154443 23.0614 0C23.0731 0.231038 23.1178 0.459271 23.1942 0.677875C23.1942 0.949179 23.3271 1.08445 23.3271 1.49102C23.3271 1.76232 23.5919 2.1689 23.5919 2.43943C23.7248 2.84601 23.8568 3.11731 23.9897 3.52388C24.1579 3.95731 24.3806 4.36812 24.6523 4.74666L25.4477 5.96943C25.7132 6.40751 26.0238 6.81727 26.3744 7.19221C27.5931 8.59525 29.0795 9.74652 30.7485 10.5801C31.3024 10.8908 31.8788 11.1606 32.473 11.3871L33.931 12.065L32.3402 12.6068C31.7947 12.8477 31.2636 13.1192 30.7493 13.4199C29.1245 14.3207 27.6492 15.4634 26.3752 16.8078C26.0246 17.1827 25.714 17.5925 25.4485 18.0306L24.653 19.2533C24.3882 19.6599 24.2553 20.0665 23.9904 20.4761C23.8211 20.8233 23.6878 21.1867 23.5927 21.5606C23.4602 21.863 23.3711 22.1822 23.3278 22.509C23.2195 22.7659 23.174 23.0445 23.195 23.3221C23.1186 23.5407 23.0738 23.769 23.0622 24C22.7615 23.8467 22.4521 23.711 22.1355 23.5934C21.8344 23.5061 21.5225 23.4606 21.2087 23.4582C21.3113 23.2379 21.3997 23.0115 21.4736 22.7803C21.6065 22.509 21.6065 22.2384 21.7385 21.9671C21.8931 21.6139 22.0259 21.2518 22.1362 20.8827C22.3045 20.4493 22.5271 20.0385 22.7988 19.6599C23.016 19.2237 23.2829 18.8134 23.5943 18.4371C23.8598 17.9991 24.1704 17.5893 24.521 17.2144C24.9187 16.8078 25.1836 16.4012 25.5813 15.9916C26.9645 14.6037 28.5773 13.4599 30.35 12.6099C30.4829 12.6099 30.4829 12.4746 30.6149 12.4746H27.9661C24.9172 12.4746 20.6759 12.6099 16.5666 12.6099C12.4574 12.7451 8.34819 12.7451 5.16646 12.8812C2.11755 13.0126 0 13.0126 0 13.0126C0.0750993 12.7015 0.119583 12.3838 0.13283 12.0642C0.119583 11.7446 0.0750993 11.4269 0 11.1158C1.72106 11.0298 3.4454 11.0298 5.16646 11.1158Z" fill="white"/>
</svg>
