<svg width="23" height="17" viewBox="0 0 23 17" fill="none" xmlns="http://www.w3.org/2000/svg">
<path d="M3.78805 8.0697C5.82066 8.0697 8.64818 8.15988 11.3882 8.25057C14.1277 8.25057 16.8671 8.34075 18.9878 8.34075H20.7552C20.6667 8.34075 20.6667 8.25057 20.5787 8.25057C19.409 7.66116 18.3364 6.89965 17.3974 5.992C17.1368 5.74257 16.9001 5.46967 16.6906 5.17682C16.4568 4.92686 16.2498 4.65368 16.0727 4.36164L15.5425 3.54646C15.3659 3.27541 15.2773 3.00436 15.1007 2.73127C15.0122 2.46022 14.8356 2.27936 14.8356 2.00831C14.7376 1.84523 14.6764 1.66306 14.6564 1.47436C14.6072 1.32021 14.5482 1.16928 14.4798 1.02245C14.689 1.02081 14.8969 0.990459 15.0976 0.932266C15.3096 0.853328 15.5168 0.762142 15.718 0.65918C15.7258 0.813205 15.7556 0.96536 15.8066 1.1111C15.8066 1.29197 15.8951 1.38214 15.8951 1.65319C15.8951 1.83406 16.0717 2.10511 16.0717 2.28547C16.1603 2.55652 16.2483 2.73739 16.3369 3.00843C16.449 3.29739 16.5974 3.57126 16.7786 3.82362L17.3089 4.6388C17.4859 4.93085 17.6929 5.20403 17.9267 5.45398C18.7391 6.38934 19.7301 7.15686 20.8428 7.71255C21.212 7.91972 21.5963 8.09955 21.9924 8.25057L22.9644 8.70249L21.9039 9.06371C21.5402 9.22432 21.1861 9.40532 20.8433 9.60581C19.76 10.2063 18.7765 10.9681 17.9272 11.8644C17.6935 12.1143 17.4864 12.3875 17.3094 12.6796L16.7791 13.4947C16.6025 13.7658 16.514 14.0368 16.3374 14.3099C16.2245 14.5414 16.1356 14.7836 16.0722 15.0329C15.9839 15.2345 15.9245 15.4473 15.8956 15.6652C15.8234 15.8365 15.7931 16.0222 15.8071 16.2073C15.7561 16.353 15.7263 16.5052 15.7185 16.6592C15.5181 16.557 15.3118 16.4665 15.1007 16.3881C14.9 16.3299 14.6921 16.2996 14.4829 16.298C14.5513 16.1511 14.6102 16.0002 14.6595 15.846C14.748 15.6652 14.748 15.4848 14.8361 15.3039C14.9391 15.0685 15.0277 14.827 15.1012 14.581C15.2134 14.292 15.3618 14.0182 15.543 13.7658C15.6878 13.475 15.8657 13.2015 16.0733 12.9506C16.2503 12.6586 16.4573 12.3854 16.6911 12.1354C16.9562 11.8644 17.1328 11.5933 17.3979 11.3202C18.3201 10.3949 19.3953 9.63247 20.5771 9.06575C20.6657 9.06575 20.6657 8.97557 20.7537 8.97557H18.9878C16.9552 8.97557 14.1277 9.06575 11.3882 9.06575C8.64869 9.15593 5.90921 9.15593 3.78805 9.24662C1.75545 9.33425 0.34375 9.33425 0.34375 9.33425C0.393816 9.12682 0.423472 8.91507 0.432303 8.70198C0.423472 8.48888 0.393816 8.27714 0.34375 8.0697C1.49112 8.01238 2.64068 8.01238 3.78805 8.0697Z" fill="#1E1E1E"/>
</svg>
