<svg width="18" height="18" viewBox="0 0 18 18" fill="none" xmlns="http://www.w3.org/2000/svg">
<path d="M3.36693 14.6454C4.80419 13.2081 6.86732 11.2725 8.86892 9.39915C10.806 7.46205 12.8069 5.58871 14.3064 4.08919L15.5562 2.8394C15.4936 2.90202 15.4298 2.83825 15.3676 2.90051C14.1237 3.31081 12.8268 3.53078 11.5211 3.55292C11.1604 3.56087 10.8 3.53523 10.4448 3.47634C10.1028 3.46487 9.76321 3.4181 9.43152 3.33678L8.48012 3.13533C8.16359 3.06854 7.90932 2.93949 7.59135 2.87126C7.33707 2.74222 7.08431 2.73919 6.89265 2.54753C6.70803 2.50152 6.536 2.41593 6.3884 2.29667C6.24458 2.22249 6.09615 2.15747 5.94398 2.10198C6.09072 1.95292 6.21628 1.78444 6.31707 1.60136C6.41117 1.39562 6.49317 1.18466 6.56265 0.969575C6.67706 1.07299 6.80573 1.1595 6.94482 1.22651C7.07272 1.35441 7.1991 1.35556 7.39076 1.54722C7.51865 1.67511 7.83518 1.7419 7.96271 1.86943C8.21699 1.99848 8.40714 2.06412 8.66141 2.19316C8.94506 2.31815 9.24366 2.40687 9.55019 2.45723L10.5016 2.65868C10.8333 2.74001 11.1728 2.78678 11.5149 2.79824C12.7507 2.88517 13.9942 2.72718 15.1739 2.33331C15.5815 2.21869 15.9804 2.07413 16.3672 1.90083L17.3741 1.53306L16.8796 2.53842C16.736 2.90913 16.6136 3.2875 16.513 3.67168C16.1717 4.86229 16.0149 6.09638 16.0481 7.33071C16.0595 7.67274 16.1063 8.0123 16.1876 8.34399L16.3891 9.29538C16.4559 9.61191 16.5849 9.86619 16.6531 10.1842C16.737 10.4277 16.8455 10.6618 16.9769 10.8829C17.057 11.0879 17.1654 11.2804 17.2991 11.4548C17.3691 11.627 17.479 11.7798 17.6198 11.9007C17.6868 12.0398 17.7733 12.1685 17.8767 12.2829C17.6627 12.3524 17.4529 12.4343 17.2482 12.5281C17.0651 12.6289 16.8966 12.7545 16.7476 12.9012C16.6921 12.749 16.6271 12.6006 16.5529 12.4568C16.4876 12.2663 16.3601 12.1387 16.2944 11.9486C16.2008 11.7092 16.0927 11.4759 15.9707 11.2499C15.8457 10.9663 15.757 10.6677 15.7066 10.3611C15.6034 10.0531 15.5358 9.73388 15.5052 9.40973C15.4239 9.07804 15.3771 8.73848 15.3656 8.39645C15.3615 8.01731 15.2947 7.70078 15.2891 7.32019C15.2868 6.01385 15.508 4.71441 15.9429 3.47802C16.0055 3.4154 15.9417 3.35164 16.004 3.28938L14.7553 4.53807C13.318 5.97534 11.3824 8.03847 9.44534 9.97558C7.572 11.9764 5.63489 13.9136 4.19913 15.4776C2.82383 16.9768 1.82561 17.975 1.82561 17.975C1.71433 17.7929 1.58557 17.6222 1.44114 17.4653C1.28422 17.3209 1.11352 17.1921 0.931436 17.0808C1.70222 16.229 2.51508 15.4161 3.36693 14.6454Z" fill="#1E1E1E"/>
</svg>
