<svg width="1755" height="386" viewBox="0 0 1755 386" fill="none" xmlns="http://www.w3.org/2000/svg">
<path d="M0 0.799805H105V386H0V0.799805ZM213.6 154.4V229.4H45V154.4H213.6ZM231 0.799805V75.7998H37.2V0.799805H231ZM236.4 311V386H37.2V311H236.4Z" fill="white"/>
<path d="M457.931 190.4L558.131 386H439.931L398.531 278L357.131 386H245.531L339.731 190.4L247.931 0.799805H366.731L398.531 99.1998L430.931 0.799805H543.731L457.931 190.4Z" fill="white"/>
<path d="M740.822 161.6V88.9998C740.822 84.5998 739.622 81.3998 737.222 79.3998C734.822 76.9998 731.022 75.7998 725.822 75.7998H706.022V0.799805H757.622C789.622 0.799805 812.222 7.5998 825.422 21.1998C839.022 34.7998 845.822 52.7998 845.822 75.1998V161.6H740.822ZM740.822 297.8V153.8H845.822V311.6C845.822 334 839.022 352 825.422 365.6C812.222 379.2 789.622 386 757.622 386H706.022V311H725.822C731.022 311 734.822 310 737.222 308C739.622 305.6 740.822 302.2 740.822 297.8ZM685.622 88.9998V161.6H580.622V75.1998C580.622 52.7998 587.222 34.7998 600.422 21.1998C614.022 7.5998 636.822 0.799805 668.822 0.799805H720.422V75.7998H700.622C695.422 75.7998 691.622 76.9998 689.222 79.3998C686.822 81.3998 685.622 84.5998 685.622 88.9998ZM685.622 153.8V297.8C685.622 302.2 686.822 305.6 689.222 308C691.622 310 695.422 311 700.622 311H720.422V386H668.822C636.822 386 614.022 379.2 600.422 365.6C587.222 352 580.622 334 580.622 311.6V153.8H685.622Z" fill="white"/>
<path d="M891.797 0.799805H996.797V386H891.797V0.799805ZM926.597 386V311H1116.2V386H926.597Z" fill="white"/>
<path d="M1376.03 254V328.4H1183.43V254H1376.03ZM1442.03 386H1336.43L1278.83 115.4L1219.43 386H1116.23L1215.23 0.799805H1343.03L1442.03 386Z" fill="white"/>
<path d="M1654.42 190.4L1754.62 386H1636.42L1595.02 278L1553.62 386H1442.02L1536.22 190.4L1444.42 0.799805H1563.22L1595.02 99.1998L1627.42 0.799805H1740.22L1654.42 190.4Z" fill="white"/>
</svg>
