<svg width="44" height="44" viewBox="0 0 44 44" fill="none" xmlns="http://www.w3.org/2000/svg">
<path fill-rule="evenodd" clip-rule="evenodd" d="M43.9984 21.9984C43.9984 21.9984 44.2593 11.8894 38.1849 5.81505C32.1106 -0.25917 22.0016 0.00163099 22.0016 0.00163099C22.0016 0.00163099 22.0002 0.0536979 22 0.152576C22 0.110816 21.9996 0.0774088 21.9994 0.0527403C21.999 0.019007 21.9984 0.00163099 21.9984 0.00163099C21.9984 0.00163099 11.8894 -0.25917 5.81505 5.81505C-0.25917 11.8894 0.00163099 21.9984 0.00163099 21.9984C0.00163099 21.9984 10.1107 22.2591 16.1849 16.1849C21.737 10.6329 21.9965 1.71011 22 0.216824C22.0037 1.71011 22.2632 10.6329 27.8151 16.1849C33.8894 22.2591 43.9984 21.9984 43.9984 21.9984ZM5.81505 38.1849C-0.25917 32.1106 0.00163099 22.0016 0.00163099 22.0016C0.00163099 22.0016 10.1107 21.7409 16.1849 27.8151C21.737 33.3671 21.9965 42.2899 22 43.7833C22.0037 42.2899 22.2632 33.3671 27.8151 27.8151C33.8894 21.7409 43.9984 22.0016 43.9984 22.0016C43.9984 22.0016 44.2593 32.1106 38.1849 38.1849C32.1106 44.2591 22.0016 43.9984 22.0016 43.9984C22.0016 43.9984 22.0002 43.9462 22 43.8474C21.9998 43.9462 21.9984 43.9984 21.9984 43.9984C21.9984 43.9984 11.8894 44.2591 5.81505 38.1849Z" fill="#59D2F3"/>
</svg>
