<svg xmlns="http://www.w3.org/2000/svg" xmlns:xlink="http://www.w3.org/1999/xlink" width="44" zoomAndPan="magnify" viewBox="0 0 33 32.999998" height="44" preserveAspectRatio="xMidYMid meet" version="1.0"><defs><g/><clipPath id="096459f6ab"><rect x="0" width="15" y="0" height="32"/></clipPath></defs><rect x="-3.3" width="39.6" fill="#ffffff" y="-3.3" height="39.599998" fill-opacity="1"/><rect x="-3.3" width="39.6" fill="#000000" y="-3.3" height="39.599998" fill-opacity="1"/><g transform="matrix(1, 0, 0, 1, 9, 0.000000000000004502)"><g clip-path="url(#096459f6ab)"><g fill="#00ff40" fill-opacity="1"><g transform="translate(0.696087, 23.288662)"><g><path d="M 9.6875 -9.828125 Z M 6.953125 -8.96875 C 9.140625 -8.726562 10.738281 -8.03125 11.75 -6.875 C 12.414062 -6.101562 12.75 -5.238281 12.75 -4.28125 L 12.75 -4.0625 L 12.71875 -3.8125 C 12.695312 -3.570312 12.671875 -3.347656 12.640625 -3.140625 C 12.484375 -2.535156 12.195312 -2.003906 11.78125 -1.546875 C 11.320312 -1.015625 10.664062 -0.597656 9.8125 -0.296875 C 9.394531 -0.148438 8.984375 -0.0507812 8.578125 0 L 8.578125 1.953125 L 4.984375 1.953125 L 4.984375 -0.0625 C 4.660156 -0.113281 4.378906 -0.191406 4.140625 -0.296875 C 3.492188 -0.535156 2.882812 -0.929688 2.3125 -1.484375 C 1.59375 -2.128906 1.132812 -2.929688 0.9375 -3.890625 C 0.863281 -4.203125 0.828125 -4.515625 0.828125 -4.828125 L 0.828125 -5.296875 L 3.890625 -5.265625 C 3.890625 -4.710938 4.007812 -4.265625 4.25 -3.921875 C 4.664062 -3.234375 5.492188 -2.890625 6.734375 -2.890625 C 8.640625 -2.890625 9.59375 -3.351562 9.59375 -4.28125 C 9.59375 -5.144531 8.601562 -5.695312 6.625 -5.9375 C 5.53125 -6.039062 4.550781 -6.269531 3.6875 -6.625 C 2.914062 -6.957031 2.300781 -7.378906 1.84375 -7.890625 C 1.164062 -8.585938 0.828125 -9.441406 0.828125 -10.453125 C 0.828125 -11.066406 0.9375 -11.640625 1.15625 -12.171875 C 1.320312 -12.554688 1.539062 -12.921875 1.8125 -13.265625 C 2.550781 -14.097656 3.609375 -14.632812 4.984375 -14.875 L 4.984375 -16.5 L 8.578125 -16.5 L 8.578125 -14.84375 C 9.398438 -14.65625 10.117188 -14.34375 10.734375 -13.90625 C 11.210938 -13.539062 11.613281 -13.109375 11.9375 -12.609375 C 12.25 -12.109375 12.484375 -11.53125 12.640625 -10.875 C 12.671875 -10.65625 12.695312 -10.429688 12.71875 -10.203125 C 12.738281 -10.128906 12.75 -10.054688 12.75 -9.984375 L 12.75 -9.84375 L 9.6875 -9.84375 L 9.6875 -10.015625 C 9.664062 -10.128906 9.644531 -10.226562 9.625 -10.3125 C 9.570312 -10.570312 9.476562 -10.796875 9.34375 -10.984375 C 8.875 -11.640625 8.019531 -11.96875 6.78125 -11.96875 C 6.03125 -11.96875 5.40625 -11.878906 4.90625 -11.703125 C 4.300781 -11.460938 4 -11.113281 4 -10.65625 C 4 -9.75 4.984375 -9.1875 6.953125 -8.96875 Z M 6.953125 -8.96875 "/></g></g></g></g></g></svg>