<svg xmlns="http://www.w3.org/2000/svg" xmlns:xlink="http://www.w3.org/1999/xlink" width="169" zoomAndPan="magnify" viewBox="0 0 126.75 33.749998" height="45" preserveAspectRatio="xMidYMid meet" version="1.0"><defs><g/><clipPath id="345912bb89"><path d="M 11 0 L 116 0 L 116 33.5 L 11 33.5 Z M 11 0 " clip-rule="nonzero"/></clipPath><clipPath id="eefdf17c9a"><path d="M 0.539062 0 L 104.171875 0 L 104.171875 25 L 0.539062 25 Z M 0.539062 0 " clip-rule="nonzero"/></clipPath><clipPath id="ccd2411cfc"><rect x="0" width="105" y="0" height="25"/></clipPath><clipPath id="7ab588cbc7"><path d="M 50 20 L 63 20 L 63 33.5 L 50 33.5 Z M 50 20 " clip-rule="nonzero"/></clipPath><clipPath id="e72822a47e"><path d="M 1 0.0117188 L 5 0.0117188 L 5 13 L 1 13 Z M 1 0.0117188 " clip-rule="nonzero"/></clipPath><clipPath id="609e39398c"><path d="M 4 0.0117188 L 12 0.0117188 L 12 13 L 4 13 Z M 4 0.0117188 " clip-rule="nonzero"/></clipPath><clipPath id="342f11f5d1"><rect x="0" width="13" y="0" height="14"/></clipPath><clipPath id="c0b221d5ef"><path d="M 1 4 L 12.90625 4 L 12.90625 21 L 1 21 Z M 1 4 " clip-rule="nonzero"/></clipPath><clipPath id="7235cb2e83"><rect x="0" width="13" y="0" height="26"/></clipPath><clipPath id="5697a8efbf"><rect x="0" width="105" y="0" height="34"/></clipPath></defs><g clip-path="url(#345912bb89)"><g transform="matrix(1, 0, 0, 1, 11, -0.000000000000001048)"><g clip-path="url(#5697a8efbf)"><g clip-path="url(#eefdf17c9a)"><g transform="matrix(1, 0, 0, 1, 0, -0.000000000000001048)"><g clip-path="url(#ccd2411cfc)"><g fill="#000000" fill-opacity="1"><g transform="translate(0.585826, 17.728944)"><g><path d="M 14.15625 -2 C 12.613281 -0.71875 10.851562 -0.078125 8.875 -0.078125 C 6.632812 -0.078125 4.71875 -0.875 3.125 -2.46875 C 1.53125 -4.050781 0.734375 -5.96875 0.734375 -8.21875 C 0.734375 -10.476562 1.53125 -12.398438 3.125 -13.984375 C 4.71875 -15.578125 6.632812 -16.375 8.875 -16.375 C 10.875 -16.375 12.632812 -15.726562 14.15625 -14.4375 L 11.71875 -12.015625 C 10.894531 -12.648438 9.945312 -12.96875 8.875 -12.96875 C 7.570312 -12.96875 6.457031 -12.503906 5.53125 -11.578125 C 4.601562 -10.648438 4.140625 -9.53125 4.140625 -8.21875 C 4.140625 -6.914062 4.601562 -5.800781 5.53125 -4.875 C 6.457031 -3.945312 7.570312 -3.484375 8.875 -3.484375 C 9.945312 -3.484375 10.894531 -3.800781 11.71875 -4.4375 Z M 14.15625 -2 "/></g></g></g><g fill="#000000" fill-opacity="1"><g transform="translate(14.256982, 17.728944)"><g><path d="M 8.53125 -15.765625 C 10.789062 -15.765625 12.71875 -14.96875 14.3125 -13.375 C 15.90625 -11.789062 16.703125 -9.867188 16.703125 -7.609375 C 16.703125 -5.347656 15.90625 -3.421875 14.3125 -1.828125 C 12.71875 -0.234375 10.789062 0.5625 8.53125 0.5625 C 6.269531 0.5625 4.34375 -0.234375 2.75 -1.828125 C 1.15625 -3.421875 0.359375 -5.347656 0.359375 -7.609375 C 0.359375 -9.867188 1.15625 -11.789062 2.75 -13.375 C 4.34375 -14.96875 6.269531 -15.765625 8.53125 -15.765625 Z M 11.890625 -4.234375 C 12.816406 -5.160156 13.28125 -6.285156 13.28125 -7.609375 C 13.28125 -8.921875 12.816406 -10.039062 11.890625 -10.96875 C 10.960938 -11.894531 9.84375 -12.359375 8.53125 -12.359375 C 7.21875 -12.359375 6.097656 -11.894531 5.171875 -10.96875 C 4.242188 -10.039062 3.78125 -8.921875 3.78125 -7.609375 C 3.78125 -6.285156 4.242188 -5.160156 5.171875 -4.234375 C 6.128906 -3.316406 7.25 -2.859375 8.53125 -2.859375 C 9.8125 -2.859375 10.929688 -3.316406 11.890625 -4.234375 Z M 11.890625 -4.234375 "/></g></g></g><g fill="#000000" fill-opacity="1"><g transform="translate(31.315511, 17.728944)"><g><path d="M 11.09375 -15.84375 L 14.890625 -15.84375 L 14.890625 0 L 4.390625 -7.734375 L 4.390625 0 L 0.578125 0 L 0.578125 -15.84375 L 11.09375 -7.75 Z M 11.09375 -15.84375 "/></g></g></g><g fill="#000000" fill-opacity="1"><g transform="translate(46.79032, 17.728944)"><g/></g></g><g fill="#000000" fill-opacity="1"><g transform="translate(53.126345, 17.728944)"><g/></g></g><g fill="#000000" fill-opacity="1"><g transform="translate(58.051331, 17.728944)"><g><path d="M 10.75 -15.84375 L 14.28125 -15.84375 L 14.28125 -6.703125 C 14.28125 -4.722656 13.535156 -3.070312 12.046875 -1.75 C 10.691406 -0.582031 9.171875 0 7.484375 0 C 5.859375 0 4.378906 -0.566406 3.046875 -1.703125 C 1.503906 -3.003906 0.734375 -4.6875 0.734375 -6.75 L 0.734375 -15.84375 L 4.265625 -15.84375 L 4.265625 -6.75 C 4.265625 -5.78125 4.613281 -5 5.3125 -4.40625 C 5.632812 -4.113281 6.015625 -3.894531 6.453125 -3.75 C 6.828125 -3.601562 7.171875 -3.53125 7.484375 -3.53125 C 7.773438 -3.53125 8.140625 -3.601562 8.578125 -3.75 C 9.066406 -3.945312 9.445312 -4.175781 9.71875 -4.4375 C 10.082031 -4.757812 10.335938 -5.082031 10.484375 -5.40625 C 10.660156 -5.769531 10.75 -6.203125 10.75 -6.703125 Z M 10.75 -15.84375 "/></g></g></g><g fill="#000000" fill-opacity="1"><g transform="translate(73.062836, 17.728944)"><g><path d="M 17.59375 -15.84375 L 17.59375 0 L 13.796875 0 L 13.796875 -8.875 L 9.09375 -5.875 L 4.53125 -8.84375 L 4.53125 0 L 0.734375 0 L 0.734375 -15.84375 L 9.140625 -10.40625 Z M 17.59375 -15.84375 "/></g></g></g><g fill="#000000" fill-opacity="1"><g transform="translate(91.388571, 17.728944)"><g><path d="M 4.53125 -6.21875 L 4.53125 -3.40625 L 11.796875 -3.40625 L 11.796875 0 L 0.734375 0 L 0.734375 -15.84375 L 11.796875 -15.84375 L 11.796875 -12.4375 L 4.53125 -12.4375 L 4.53125 -9.625 L 10.703125 -9.625 L 10.703125 -6.21875 Z M 4.53125 -6.21875 "/></g></g></g></g></g></g><g clip-path="url(#7ab588cbc7)"><g transform="matrix(1, 0, 0, 1, 50, 20)"><g clip-path="url(#342f11f5d1)"><g clip-path="url(#e72822a47e)"><g fill="#00ff40" fill-opacity="1"><g transform="translate(0.932545, 12.535117)"><g><path d="M 3.453125 0 L 0.328125 0 L 0.328125 -12.171875 L 3.453125 -12.171875 Z M 3.453125 0 "/></g></g></g></g><g clip-path="url(#609e39398c)"><g fill="#00ff40" fill-opacity="1"><g transform="translate(4.718365, 12.535117)"><g><path d="M 6.890625 -9.71875 L 5.03125 -9.71875 L 5.03125 0 L 1.890625 0 L 1.890625 -9.71875 L 0.03125 -9.71875 L 0.03125 -12.171875 L 6.890625 -12.171875 Z M 6.890625 -9.71875 "/></g></g></g></g></g></g></g><g transform="matrix(1, 0, 0, 1, 46, -0.000000000000001048)"><g clip-path="url(#7235cb2e83)"><g clip-path="url(#c0b221d5ef)"><g fill="#00ff40" fill-opacity="1"><g transform="translate(0.828178, 18.654407)"><g><path d="M 8.546875 -8.671875 Z M 6.140625 -7.921875 C 8.066406 -7.710938 9.476562 -7.09375 10.375 -6.0625 C 10.957031 -5.382812 11.25 -4.625 11.25 -3.78125 L 11.25 -3.578125 L 11.234375 -3.359375 C 11.210938 -3.148438 11.1875 -2.957031 11.15625 -2.78125 C 11.03125 -2.238281 10.78125 -1.765625 10.40625 -1.359375 C 10 -0.890625 9.421875 -0.523438 8.671875 -0.265625 C 8.296875 -0.140625 7.929688 -0.0507812 7.578125 0 L 7.578125 1.734375 L 4.40625 1.734375 L 4.40625 -0.046875 C 4.113281 -0.0976562 3.863281 -0.171875 3.65625 -0.265625 C 3.082031 -0.472656 2.546875 -0.820312 2.046875 -1.3125 C 1.410156 -1.882812 1.003906 -2.59375 0.828125 -3.4375 C 0.753906 -3.707031 0.71875 -3.984375 0.71875 -4.265625 L 0.71875 -4.6875 L 3.4375 -4.65625 C 3.4375 -4.164062 3.539062 -3.769531 3.75 -3.46875 C 4.125 -2.863281 4.851562 -2.5625 5.9375 -2.5625 C 7.625 -2.5625 8.46875 -2.96875 8.46875 -3.78125 C 8.46875 -4.539062 7.59375 -5.023438 5.84375 -5.234375 C 4.882812 -5.335938 4.023438 -5.539062 3.265625 -5.84375 C 2.578125 -6.132812 2.03125 -6.507812 1.625 -6.96875 C 1.019531 -7.582031 0.71875 -8.335938 0.71875 -9.234375 C 0.71875 -9.773438 0.816406 -10.28125 1.015625 -10.75 C 1.160156 -11.09375 1.359375 -11.414062 1.609375 -11.71875 C 2.253906 -12.457031 3.1875 -12.929688 4.40625 -13.140625 L 4.40625 -14.578125 L 7.578125 -14.578125 L 7.578125 -13.109375 C 8.304688 -12.953125 8.9375 -12.675781 9.46875 -12.28125 C 9.894531 -11.957031 10.253906 -11.578125 10.546875 -11.140625 C 10.828125 -10.703125 11.03125 -10.191406 11.15625 -9.609375 C 11.1875 -9.410156 11.210938 -9.210938 11.234375 -9.015625 C 11.242188 -8.953125 11.25 -8.890625 11.25 -8.828125 L 11.25 -8.703125 L 8.546875 -8.703125 L 8.546875 -8.84375 C 8.535156 -8.945312 8.519531 -9.035156 8.5 -9.109375 C 8.445312 -9.335938 8.363281 -9.535156 8.25 -9.703125 C 7.832031 -10.285156 7.078125 -10.578125 5.984375 -10.578125 C 5.316406 -10.578125 4.765625 -10.492188 4.328125 -10.328125 C 3.796875 -10.117188 3.53125 -9.8125 3.53125 -9.40625 C 3.53125 -8.613281 4.398438 -8.117188 6.140625 -7.921875 Z M 6.140625 -7.921875 "/></g></g></g></g></g></g></g></g></g></svg>