<svg width="169" height="45" viewBox="0 0 169 45" fill="none" xmlns="http://www.w3.org/2000/svg">
<path d="M67.0618 38.1244L169 32.2519V38.1714L59 44.0439V8.18848H78.1116V14.108H67.0618V22.8464H76.4767V28.7659H67.0618V38.1244Z" fill="white"/>
<path d="M91.8967 19.6243L97.7013 31.7118H90.9529L88.0742 24.3171L85.337 31.7118H78.8245L84.2988 19.7191L78.7773 8.24791H85.6674L88.0742 15.216L90.4337 8.24791H97.0878L91.8967 19.6243Z" fill="white"/>
<path d="M105.31 8.24791H110.926C113.002 8.24791 114.481 8.70613 115.362 9.62256C116.274 10.5074 116.73 11.803 116.73 13.5095V26.4502C116.73 28.1567 116.274 29.4681 115.362 30.3845C114.481 31.2694 113.002 31.7118 110.926 31.7118H105.31C103.233 31.7118 101.739 31.2694 100.827 30.3845C99.9457 29.4681 99.5053 28.1567 99.5053 26.4502V13.5095C99.5053 11.803 99.9457 10.5074 100.827 9.62256C101.739 8.70613 103.233 8.24791 105.31 8.24791ZM110.265 25.7866V14.1731C110.265 13.3831 109.84 12.9881 108.991 12.9881H107.245C106.395 12.9881 105.971 13.3831 105.971 14.1731V25.7866C105.971 26.5766 106.395 26.9716 107.245 26.9716H108.991C109.84 26.9716 110.265 26.5766 110.265 25.7866Z" fill="white"/>
<path d="M127.04 31.7118H120.48V0H127.04V31.7118Z" fill="white"/>
<path d="M141.039 8.24791H147.505V31.7118H140.945V29.3891C140.473 30.9376 139.23 31.7118 137.217 31.7118H136.084C132.403 31.7118 130.563 29.9579 130.563 26.4502V13.5095C130.563 10.0018 132.403 8.24791 136.084 8.24791H137.217C139.325 8.24791 140.599 9.13274 141.039 10.9024V8.24791ZM138.444 26.7346H139.529C140.473 26.7346 140.945 26.229 140.945 25.2178V14.742C140.945 13.7307 140.473 13.2251 139.529 13.2251H138.444C137.594 13.2251 137.17 13.6201 137.17 14.4101V25.5496C137.17 26.3396 137.594 26.7346 138.444 26.7346Z" fill="white"/>
<path d="M162.823 19.6243L168.627 31.7118H161.879L159 24.3171L156.263 31.7118H149.751L155.225 19.7191L149.703 8.24791H156.593L159 15.216L161.36 8.24791H168.014L162.823 19.6243Z" fill="white"/>
<path fill-rule="evenodd" clip-rule="evenodd" d="M43.9984 21.9984C43.9984 21.9984 44.2593 11.8894 38.1849 5.81505C32.1106 -0.25917 22.0016 0.00163099 22.0016 0.00163099C22.0016 0.00163099 22.0002 0.0536979 22 0.152576C22 0.110816 21.9996 0.0774088 21.9994 0.0527403C21.999 0.019007 21.9984 0.00163099 21.9984 0.00163099C21.9984 0.00163099 11.8894 -0.25917 5.81505 5.81505C-0.25917 11.8894 0.00163099 21.9984 0.00163099 21.9984C0.00163099 21.9984 10.1107 22.2591 16.1849 16.1849C21.737 10.6329 21.9965 1.71011 22 0.216824C22.0037 1.71011 22.2632 10.6329 27.8151 16.1849C33.8894 22.2591 43.9984 21.9984 43.9984 21.9984ZM5.81505 38.1849C-0.25917 32.1106 0.00163099 22.0016 0.00163099 22.0016C0.00163099 22.0016 10.1107 21.7409 16.1849 27.8151C21.737 33.3671 21.9965 42.2899 22 43.7833C22.0037 42.2899 22.2632 33.3671 27.8151 27.8151C33.8894 21.7409 43.9984 22.0016 43.9984 22.0016C43.9984 22.0016 44.2593 32.1106 38.1849 38.1849C32.1106 44.2591 22.0016 43.9984 22.0016 43.9984C22.0016 43.9984 22.0002 43.9462 22 43.8474C21.9998 43.9462 21.9984 43.9984 21.9984 43.9984C21.9984 43.9984 11.8894 44.2591 5.81505 38.1849Z" fill="white"/>
</svg>
