<?xml version="1.0" encoding="UTF-8"?>
<svg version="1.1" xmlns="http://www.w3.org/2000/svg" width="1066" height="234">
<path d="M0 0 C1.29442017 0.00616333 1.29442017 0.00616333 2.61499023 0.01245117 C3.55149414 0.01438477 4.48799805 0.01631836 5.45288086 0.01831055 C6.43321289 0.03055664 7.41354492 0.04280273 8.42358398 0.05541992 C9.4077832 0.05606445 10.39198242 0.05670898 11.40600586 0.05737305 C18.72090866 0.1027446 18.72090866 0.1027446 19.86108398 1.24291992 C19.9331391 2.92900958 19.94494466 4.61792651 19.92358398 6.30541992 C19.91456055 7.22452148 19.90553711 8.14362305 19.89624023 9.09057617 C19.88463867 9.80084961 19.87303711 10.51112305 19.86108398 11.24291992 C21.09858398 11.33573242 21.09858398 11.33573242 22.36108398 11.43041992 C30.37192269 13.29007891 36.26332182 18.5616149 40.86108398 25.24291992 C43.86772344 30.90143312 45.41755731 35.84347666 44.86108398 42.24291992 C41.09808025 43.4972545 37.58897489 43.34987414 33.67358398 43.30541992 C32.92399414 43.3009082 32.1744043 43.29639648 31.40209961 43.29174805 C29.55506016 43.27998346 27.70806185 43.26204858 25.86108398 43.24291992 C25.60456055 42.55584961 25.34803711 41.8687793 25.08374023 41.16088867 C22.88764016 35.88813952 22.88764016 35.88813952 18.98217773 31.87573242 C12.60230265 29.40837742 5.4650917 29.89132249 -1.13891602 31.24291992 C-3.99668061 32.46631089 -3.99668061 32.46631089 -6.13891602 34.24291992 C-6.5563821 37.36927202 -6.5563821 37.36927202 -6.13891602 40.24291992 C-0.43044663 43.40134743 4.29999852 44.93487577 10.73608398 45.74291992 C22.34337196 47.47093465 33.0009451 50.63452958 40.49780273 60.36791992 C45.23782262 67.75637499 45.69461086 74.53824723 44.86108398 83.24291992 C42.3045953 90.9895214 36.97864786 95.71572944 29.86108398 99.43041992 C26.60542618 100.97685738 23.31725402 102.20606891 19.86108398 103.24291992 C20.35608398 107.69791992 20.35608398 107.69791992 20.86108398 112.24291992 C36.70108398 112.24291992 52.54108398 112.24291992 68.86108398 112.24291992 C68.86108398 118.18291992 68.86108398 124.12291992 68.86108398 130.24291992 C68.53108398 130.57291992 68.20108398 130.90291992 67.86108398 131.24291992 C63.90108398 131.24291992 59.94108398 131.24291992 55.86108398 131.24291992 C55.86108398 153.02291992 55.86108398 174.80291992 55.86108398 197.24291992 C52.9589169 198.21030895 51.43140158 198.31418587 48.44702148 198.15698242 C47.18245117 198.09124023 47.18245117 198.09124023 45.89233398 198.02416992 C45.01577148 197.97260742 44.13920898 197.92104492 43.23608398 197.86791992 C41.90963867 197.80217773 41.90963867 197.80217773 40.55639648 197.73510742 C33.99075119 197.37258713 33.99075119 197.37258713 32.86108398 196.24291992 C32.73733229 194.21877001 32.68311088 192.19034255 32.65576172 190.16259766 C32.62584389 188.21068764 32.62584389 188.21068764 32.59532166 186.21934509 C32.57833599 184.78840252 32.56145723 183.35745868 32.54467773 181.92651367 C32.52411493 180.47062072 32.50311864 179.01473383 32.48170471 177.55885315 C32.42641437 173.72019346 32.37703596 169.88147927 32.32885742 166.04272461 C32.27869307 162.12828704 32.22298063 158.21392896 32.16772461 154.29956055 C32.06005795 146.61408091 31.95863205 138.92853535 31.86108398 131.24291992 C31.23459961 131.25452148 30.60811523 131.26612305 29.96264648 131.27807617 C29.14538086 131.28709961 28.32811523 131.29612305 27.48608398 131.30541992 C26.67397461 131.31702148 25.86186523 131.32862305 25.02514648 131.34057617 C22.86108398 131.24291992 22.86108398 131.24291992 20.86108398 130.24291992 C20.85077652 131.05280365 20.84046906 131.86268738 20.82984924 132.69711304 C20.73198034 140.31952708 20.62948117 147.94185796 20.52174473 155.56413841 C20.46651714 159.48307841 20.41309742 163.40202587 20.36376953 167.32104492 C20.31612352 171.10120872 20.26378065 174.88128066 20.20814323 178.66133499 C20.18772074 180.10544175 20.16900748 181.54957369 20.15200996 182.99372482 C20.12796392 185.01223243 20.09734521 187.03065854 20.06640625 189.04907227 C20.05086197 190.19934906 20.03531769 191.34962585 20.01930237 192.53475952 C19.86108398 195.24291992 19.86108398 195.24291992 18.86108398 197.24291992 C15.21526711 197.27179504 11.56947935 197.28967577 7.92358398 197.30541992 C6.88266602 197.31379883 5.84174805 197.32217773 4.76928711 197.33081055 C3.77993164 197.3340332 2.79057617 197.33725586 1.77124023 197.34057617 C0.85479736 197.34581299 -0.06164551 197.3510498 -1.00585938 197.35644531 C-3.13891602 197.24291992 -3.13891602 197.24291992 -4.13891602 196.24291992 C-4.23418407 193.29045638 -4.26444054 190.36143571 -4.25244141 187.40869141 C-4.25258743 186.48195618 -4.25273346 185.55522095 -4.25288391 184.60040283 C-4.2521844 181.52158305 -4.24439023 178.44282295 -4.23657227 175.36401367 C-4.23470822 173.23551975 -4.23328426 171.10702539 -4.23228455 168.97853088 C-4.22845829 163.36429672 -4.21862709 157.75008824 -4.20758057 152.13586426 C-4.19736875 146.41178739 -4.19278742 140.68770639 -4.18774414 134.96362305 C-4.17700492 123.72337736 -4.15992722 112.48315077 -4.13891602 101.24291992 C-4.75465988 101.05014969 -5.37040375 100.85737946 -6.00480652 100.6587677 C-6.81371841 100.3988353 -7.62263031 100.13890289 -8.45605469 99.87109375 C-9.25742355 99.61644852 -10.05879242 99.36180328 -10.88444519 99.09944153 C-17.73147734 96.49810781 -23.73487106 89.62550422 -27.13891602 83.24291992 C-29.24139353 78.40722164 -29.40274757 74.43160724 -29.13891602 69.24291992 C-28.13891602 68.24291992 -28.13891602 68.24291992 -26.28125 68.12939453 C-25.09511108 68.13724976 -25.09511108 68.13724976 -23.88500977 68.14526367 C-22.60400391 68.15009766 -22.60400391 68.15009766 -21.29711914 68.1550293 C-20.39928711 68.1634082 -19.50145508 68.17178711 -18.57641602 68.18041992 C-17.6747168 68.18493164 -16.77301758 68.18944336 -15.84399414 68.1940918 C-13.60890288 68.20591768 -11.37394165 68.22239772 -9.13891602 68.24291992 C-8.90817383 68.92999023 -8.67743164 69.61706055 -8.43969727 70.32495117 C-6.50338158 75.92728556 -6.50338158 75.92728556 -2.70141602 80.30541992 C2.11694162 82.06823369 6.24624217 82.35143687 11.36108398 81.99291992 C12.46452148 81.92588867 13.56795898 81.85885742 14.70483398 81.78979492 C18.10533351 81.20059946 20.13509891 80.34367906 22.86108398 78.24291992 C23.61108398 75.24291992 23.61108398 75.24291992 22.86108398 72.24291992 C19.93101494 69.45336254 17.36219162 68.71210571 13.42358398 68.06713867 C12.36905029 67.8823999 11.3145166 67.69766113 10.22802734 67.50732422 C9.11693604 67.3169458 8.00584473 67.12656738 6.86108398 66.93041992 C-6.45037243 64.43955903 -17.43865648 61.38535757 -26.13891602 50.24291992 C-29.41971808 44.70656644 -29.98238994 39.53148665 -29.13891602 33.24291992 C-27.10475472 25.81713756 -24.07575398 19.56674789 -17.32641602 15.58276367 C-12.64637602 13.15671353 -8.38022876 11.06187504 -3.13891602 10.24291992 C-3.34516602 8.96416992 -3.55141602 7.68541992 -3.76391602 6.36791992 C-4.11547852 4.18823242 -4.11547852 4.18823242 -4.13891602 2.24291992 C-2.13891602 0.24291992 -2.13891602 0.24291992 0 0 Z " fill="#03F746" transform="translate(512.138916015625,33.757080078125)"/>
<path d="M0 0 C0.66 0 1.32 0 2 0 C2 0.66 2 1.32 2 2 C2.67933594 2.24105469 3.35867188 2.48210938 4.05859375 2.73046875 C7.61591254 4.26583211 10.80409788 6.23797039 14.0625 8.3125 C14.75005371 8.74618896 15.43760742 9.17987793 16.14599609 9.62670898 C21.83415631 13.22786005 27.48071206 16.89312187 33.125 20.5625 C33.96885254 21.10890137 34.81270508 21.65530273 35.68212891 22.21826172 C39.55722664 24.73275288 43.40987184 27.26746394 47.20703125 29.8984375 C47.84302246 30.3308374 48.47901367 30.7632373 49.13427734 31.20874023 C50.81561013 32.35444128 52.48450527 33.518336 54.15234375 34.68359375 C56.84209006 36.25757784 56.84209006 36.25757784 59.3203125 35.58203125 C63.27111281 33.24956168 67.1158304 30.78808953 70.9375 28.25 C72.72455806 27.07445242 74.5123459 25.90001365 76.30078125 24.7265625 C77.69611084 23.81052246 77.69611084 23.81052246 79.11962891 22.87597656 C84.81189492 19.16862176 90.56229445 15.55160791 96.31225586 11.93457031 C101.6626531 8.55072144 106.86104036 5.02179369 111.98193359 1.29833984 C114 0 114 0 116 0 C117.3202202 5.00292465 117.13285833 9.98184992 117.11352539 15.11450195 C117.11367142 16.12960342 117.11381744 17.1447049 117.1139679 18.19056702 C117.11327223 21.53982697 117.10549597 24.88903104 117.09765625 28.23828125 C117.09579084 30.56284047 117.09436752 32.88740008 117.09336853 35.21195984 C117.08955302 41.32590829 117.07973095 47.43983292 117.06866455 53.55377197 C117.05842968 59.79430825 117.05386646 66.03484837 117.04882812 72.27539062 C117.03810784 84.51693754 117.02104299 96.75846679 117 109 C114.35171821 110.3241409 112.33319888 110.12957042 109.37109375 110.1328125 C107.69563477 110.13474609 107.69563477 110.13474609 105.98632812 110.13671875 C104.81521484 110.13285156 103.64410156 110.12898438 102.4375 110.125 C101.26251953 110.12886719 100.08753906 110.13273437 98.87695312 110.13671875 C97.76126953 110.13542969 96.64558594 110.13414062 95.49609375 110.1328125 C94.46669678 110.13168457 93.4372998 110.13055664 92.37670898 110.12939453 C90 110 90 110 89 109 C88.87669912 107.1903226 88.82209817 105.37592163 88.79467773 103.56225586 C88.7647599 101.82056374 88.7647599 101.82056374 88.73423767 100.04368591 C88.71752518 98.780168 88.70081268 97.51665009 88.68359375 96.21484375 C88.66281265 94.92888809 88.64203156 93.64293243 88.62062073 92.31800842 C88.56533824 88.89364096 88.51595639 85.4692125 88.46777344 82.04473877 C88.41760335 78.55255686 88.3618939 75.0604639 88.30664062 71.56835938 C88.1989836 64.71231667 88.09755551 57.85619367 88 51 C75.62890081 58.32953376 75.62890081 58.32953376 63.68359375 66.328125 C61.24700086 67.96780868 59.52044662 68.99337011 56.546875 69.03125 C53.00716745 67.59799418 49.98566984 65.55375429 46.875 63.375 C45.64422821 62.52719368 44.41242814 61.68087848 43.1796875 60.8359375 C42.2654451 60.20804825 42.2654451 60.20804825 41.33273315 59.56747437 C38.6626683 57.77333079 35.95527269 56.04572939 33.23876953 54.32275391 C32.25554718 53.69865631 31.27232483 53.07455872 30.25930786 52.43154907 C29.51373627 51.95913788 28.76816467 51.48672668 28 51 C27.9845388 52.08661171 27.9845388 52.08661171 27.96876526 53.19517517 C27.87095232 60.00851902 27.76846141 66.821778 27.66066074 73.63497066 C27.60540045 77.13804355 27.55197566 80.64112473 27.50268555 84.14428711 C27.44599332 88.16790144 27.38142599 92.19135531 27.31640625 96.21484375 C27.29133751 98.11012062 27.29133751 98.11012062 27.26576233 100.04368591 C27.24581711 101.204814 27.22587189 102.36594208 27.20532227 103.56225586 C27.18977798 104.59039902 27.1742337 105.61854218 27.15821838 106.67784119 C27 109 27 109 26 110 C24.07332493 110.08748207 22.14348139 110.10697334 20.21484375 110.09765625 C18.46010742 110.09282227 18.46010742 110.09282227 16.66992188 110.08789062 C15.43822266 110.07951172 14.20652344 110.07113281 12.9375 110.0625 C11.08415039 110.05573242 11.08415039 110.05573242 9.19335938 110.04882812 C6.12885883 110.03699608 3.06445279 110.02051173 0 110 C-0.94487569 107.16537294 -1.11319062 105.50573326 -1.08229065 102.57710266 C-1.07525116 101.67266418 -1.06821167 100.76822571 -1.06095886 99.83638 C-1.04801285 98.84663681 -1.03506683 97.85689362 -1.02172852 96.8371582 C-1.01212097 95.79308807 -1.00251343 94.74901794 -0.99261475 93.67330933 C-0.95958365 90.21573225 -0.9192668 86.75827991 -0.87890625 83.30078125 C-0.85460916 80.906107 -0.8307654 78.51142811 -0.80735779 76.116745 C-0.744476 69.80873334 -0.67542087 63.50080365 -0.60510254 57.19287109 C-0.53445611 50.75817604 -0.46961706 44.32342281 -0.40429688 37.88867188 C-0.27523173 25.25905094 -0.13984531 12.62950593 0 0 Z " fill="#FDFDFD" transform="translate(666,26)"/>
<path d="M0 0 C0.99 0 1.98 0 3 0 C3 0.66 3 1.32 3 2 C3.55042969 2.25007813 4.10085938 2.50015625 4.66796875 2.7578125 C7.43582719 4.23214916 9.80894981 5.98435214 12.3125 7.875 C12.8273999 8.26357178 13.3422998 8.65214355 13.87280273 9.05249023 C18.82430968 12.81487023 23.65873053 16.72066777 28.49902344 20.62426758 C32.96554119 24.21200425 37.5347987 27.61242281 42.1953125 30.9453125 C46.04968375 33.76898838 49.79205105 36.72687258 53.52758789 39.70532227 C59.26649188 44.2645387 65.12541969 48.59406477 71 53 C71.33 35.51 71.66 18.02 72 0 C81.24 0 90.48 0 100 0 C100 35.97 100 71.94 100 109 C96.50607271 107.60242908 94.29826688 106.69744709 91.390625 104.63671875 C90.72716064 104.16862793 90.06369629 103.70053711 89.38012695 103.21826172 C88.67718506 102.71311035 87.97424316 102.20795898 87.25 101.6875 C86.5077417 101.15914551 85.7654834 100.63079102 85.00073242 100.08642578 C78.95783115 95.75560559 73.04989592 91.2592993 67.16479492 86.7175293 C61.83121414 82.60867392 56.40997346 78.65659103 50.90942383 74.77490234 C46.43713565 71.60957486 41.99813227 68.39851935 37.55859375 65.1875 C36.73194214 64.59001953 35.90529053 63.99253906 35.05358887 63.37695312 C33.0355054 61.91827335 31.01764734 60.45928293 29 59 C28.98969254 59.6241832 28.97938507 60.24836639 28.96876526 60.89146423 C28.86093467 67.36354552 28.74631853 73.83548093 28.62768555 80.30737305 C28.58426122 82.72563639 28.54259188 85.1439319 28.50268555 87.56225586 C28.44516397 91.02988396 28.38141813 94.49734903 28.31640625 97.96484375 C28.29133751 99.59763527 28.29133751 99.59763527 28.26576233 101.26341248 C28.24581711 102.26437454 28.22587189 103.26533661 28.20532227 104.29663086 C28.18977798 105.18265488 28.1742337 106.06867889 28.15821838 106.98155212 C28 109 28 109 27 110 C25.07332493 110.08748207 23.14348139 110.10697334 21.21484375 110.09765625 C19.46010742 110.09282227 19.46010742 110.09282227 17.66992188 110.08789062 C16.43822266 110.07951172 15.20652344 110.07113281 13.9375 110.0625 C12.08415039 110.05573242 12.08415039 110.05573242 10.19335938 110.04882812 C7.12885883 110.03699608 4.06445279 110.02051173 1 110 C0.27635507 106.74785288 -0.1242421 103.74215327 -0.12025452 100.41252136 C-0.12162918 99.52216187 -0.12300385 98.63180237 -0.12442017 97.71446228 C-0.11902725 96.26868553 -0.11902725 96.26868553 -0.11352539 94.79370117 C-0.11367142 93.76884613 -0.11381744 92.74399109 -0.1139679 91.68807983 C-0.11327218 88.30635448 -0.1054957 84.92468446 -0.09765625 81.54296875 C-0.09579086 79.19598928 -0.09436753 76.84900942 -0.09336853 74.50202942 C-0.08955289 68.32889732 -0.07973071 62.1557888 -0.06866455 55.98266602 C-0.05842996 49.68180663 -0.05386652 43.38094343 -0.04882812 37.08007812 C-0.03810761 24.72004173 -0.0210426 12.36002283 0 0 Z " fill="#FDFDFD" transform="translate(378,26)"/>
<path d="M0 0 C12.69651079 -0.71731699 26.83870346 4.89179801 36.30761719 13.02685547 C46.76686065 22.42206334 55.85950154 34.80841348 56.83789062 49.3137207 C57.60562571 67.42888176 54.44883485 81.39285202 42.44921875 95.4453125 C32.11212551 106.45543852 18.85091812 113.19851766 3.69921875 114.2578125 C-13.78673173 114.41805031 -28.20636315 108.7094999 -40.91015625 96.8046875 C-49.57574092 87.57272475 -55.76519813 76.06523488 -56.30078125 63.2578125 C-56.34074219 62.34257813 -56.38070313 61.42734375 -56.421875 60.484375 C-56.82658192 41.96308182 -50.94476339 28.92744356 -38.52734375 15.359375 C-27.53660146 4.98565684 -14.57624399 1.63333124 0 0 Z M-23.30078125 35.2578125 C-30.41192208 44.03228885 -32.14728631 52.07857114 -31.30078125 63.2578125 C-29.61750775 72.5370345 -24.07748302 79.69273774 -16.421875 85.00390625 C-9.17786077 89.2862793 -1.61691785 90.34026332 6.69921875 89.2578125 C16.19129576 86.71718222 22.84030842 82.06547255 28.26171875 73.90625 C32.78945706 65.80262746 33.53279766 58.09655642 31.63671875 49.0703125 C28.84773313 39.31517274 22.23308517 32.46745502 13.57421875 27.4453125 C0.40782117 22.51529367 -13.50463639 25.3663744 -23.30078125 35.2578125 Z " fill="#FDFDFD" transform="translate(316.30078125,25.7421875)"/>
<path d="M0 0 C25.41 0 50.82 0 77 0 C77 8.25 77 16.5 77 25 C60.83 25.33 44.66 25.66 28 26 C28 31.28 28 36.56 28 42 C29.20124512 41.99476318 30.40249023 41.98952637 31.64013672 41.98413086 C36.08674376 41.96606347 40.53334753 41.9545616 44.97998047 41.94506836 C46.90641831 41.94003213 48.83285231 41.93320288 50.75927734 41.92456055 C53.52442368 41.91246392 56.28951958 41.90676467 59.0546875 41.90234375 C60.3516304 41.89460182 60.3516304 41.89460182 61.67477417 41.88670349 C67.77225659 41.88612829 67.77225659 41.88612829 70 43 C70 50.92 70 58.84 70 67 C56.14 67 42.28 67 28 67 C28 72.94 28 78.88 28 85 C44.17 85 60.34 85 77 85 C78 107 78 107 76 110 C73.55096046 110.29210765 71.35451858 110.38905049 68.90405273 110.35644531 C68.17384918 110.35848969 67.44364563 110.36053406 66.6913147 110.36264038 C64.27182168 110.36565453 61.85300602 110.34715448 59.43359375 110.328125 C57.75733102 110.32506865 56.08106576 110.32319159 54.40480042 110.32244873 C50.88996683 110.31784185 47.37536188 110.3034003 43.8605957 110.28125 C39.34531858 110.25294552 34.83022157 110.24203684 30.31486416 110.2375679 C26.85344118 110.23342 23.39205497 110.22360817 19.93065071 110.21169281 C18.2652014 110.20597838 16.59974853 110.20122358 14.93429375 110.19742584 C12.61164954 110.19058448 10.28915085 110.17696294 7.96655273 110.16113281 C6.9247007 110.15945602 6.9247007 110.15945602 5.86180115 110.15774536 C1.11468782 110.11468782 1.11468782 110.11468782 0 109 C-0.09550698 107.58321089 -0.12188483 106.16168759 -0.12025452 104.74168396 C-0.12162918 103.8231665 -0.12300385 102.90464905 -0.12442017 101.95829773 C-0.12082489 100.94266251 -0.11722961 99.92702728 -0.11352539 98.88061523 C-0.11367142 97.81733002 -0.11381744 96.7540448 -0.1139679 95.65853882 C-0.11326825 92.12520342 -0.10547343 88.59192 -0.09765625 85.05859375 C-0.09579225 82.61621632 -0.09436827 80.17383851 -0.09336853 77.73146057 C-0.08954189 71.28865536 -0.07971037 64.84587252 -0.06866455 58.40307617 C-0.05665973 50.6805289 -0.05204888 42.95797416 -0.04621124 35.23542023 C-0.03649869 23.49026457 -0.01734314 11.74515805 0 0 Z " fill="#FDFDFD" transform="translate(791,26)"/>
<path d="M0 0 C8.25 0 16.5 0 25 0 C25.0093457 1.98249756 25.01869141 3.96499512 25.02832031 6.00756836 C25.06395824 12.58551791 25.11782605 19.16312458 25.18390274 25.74083614 C25.22327536 29.7257588 25.25551344 33.71046387 25.27099609 37.69555664 C25.28623069 41.54729667 25.32079464 45.39843809 25.36830902 49.24991035 C25.38305323 50.71332128 25.39103699 52.1768177 25.39188385 53.64030266 C25.40261898 62.89658327 25.52284991 71.40184586 32.3125 78.375 C39.36175859 82.6373424 45.04207829 84.12747313 53.10546875 82.6015625 C58.99506816 80.84721374 62.54797725 76.96290807 66 72 C67.13603185 68.59190446 67.15948953 65.92003549 67.20532227 62.32543945 C67.21522186 61.652005 67.22512146 60.97857056 67.23532104 60.284729 C67.26688389 58.06094873 67.29167275 55.8371471 67.31640625 53.61328125 C67.33698029 52.07056628 67.35797688 50.5278569 67.37937927 48.9851532 C67.4345535 44.92622398 67.48398325 40.86724427 67.53222656 36.80822754 C67.58247554 32.66572582 67.63814387 28.52329734 67.69335938 24.38085938 C67.80088411 16.25396651 67.90184083 8.12701138 68 0 C76.58 0 85.16 0 94 0 C94.09091365 8.88506112 94.16406562 17.76980573 94.20724869 26.65522957 C94.22799013 30.782538 94.25605654 34.90950759 94.30175781 39.03662109 C94.34570234 43.03077323 94.36923773 47.02460261 94.37950897 51.01897812 C94.38681431 52.53139186 94.40107558 54.04379098 94.42292023 55.55606461 C94.60771926 68.89846627 93.44302229 81.36465268 84.19140625 91.7578125 C83.46824219 92.49773437 82.74507812 93.23765625 82 94 C81.30777344 94.71929687 80.61554688 95.43859375 79.90234375 96.1796875 C70.6082062 105.11960202 59.43179096 109.73768892 46.625 110.3125 C33.91662757 109.93214378 22.08443563 104.60348904 12.84375 95.96875 C1.68314887 84.05149794 -0.61136979 71.76122008 -0.75 56 C-0.77714205 54.40508729 -0.8056413 52.81019714 -0.83544922 51.21533203 C-0.90419333 47.22862685 -0.94836509 43.24215544 -0.9810791 39.25500488 C-0.99898102 37.1214426 -1.02161765 34.98799015 -1.04589844 32.85449219 C-1.08383904 29.19461174 -1.10945623 25.53503934 -1.125 21.875 C-1.12983398 20.81152344 -1.13466797 19.74804688 -1.13964844 18.65234375 C-1.13739258 17.65074219 -1.13513672 16.64914063 -1.1328125 15.6171875 C-1.13168457 14.76753418 -1.13055664 13.91788086 -1.12939453 13.04248047 C-0.94397442 8.68265882 -0.43421062 4.34210623 0 0 Z " fill="#FDFDFD" transform="translate(563,26)"/>
<path d="M0 0 C0.52722656 0.4846875 1.05445313 0.969375 1.59765625 1.46875 C1.59765625 4.46875 1.59765625 4.46875 0.12890625 6.01171875 C-0.54140625 6.55441406 -1.21171875 7.09710938 -1.90234375 7.65625 C-5.77868911 10.86591894 -9.17219813 14.32958047 -12.54296875 18.0625 C-14.40234375 19.46875 -14.40234375 19.46875 -16.3203125 19.31640625 C-17.00738281 19.03667969 -17.69445312 18.75695312 -18.40234375 18.46875 C-19.19769531 18.14777344 -19.99304688 17.82679687 -20.8125 17.49609375 C-21.68777344 17.13644531 -22.56304687 16.77679688 -23.46484375 16.40625 C-32.35777577 13.18211927 -40.0729189 13.59869324 -48.82421875 17.13671875 C-56.02780394 20.8585711 -61.49109543 26.62830587 -64.48046875 34.19921875 C-66.87823867 42.70317394 -66.48447323 52.33045274 -62.64453125 60.328125 C-57.7315124 68.79458515 -50.67511838 73.26568323 -41.26171875 76.1171875 C-33.35115861 77.61288164 -25.30857817 75.93137605 -18.52734375 71.65625 C-17.47546875 71.0684375 -17.47546875 71.0684375 -16.40234375 70.46875 C-12.92887463 71.69300551 -11.08387426 73.73191451 -8.77734375 76.53125 C-6.44748823 79.44750712 -6.44748823 79.44750712 -3.40234375 81.46875 C-3.40234375 82.12875 -3.40234375 82.78875 -3.40234375 83.46875 C-1.91734375 83.96375 -1.91734375 83.96375 -0.40234375 84.46875 C0.78515625 87.03125 0.78515625 87.03125 1.59765625 89.46875 C-14.28356058 99.27843715 -28.92454524 103.8443271 -47.7109375 100.9609375 C-50.3830493 100.30143757 -52.84966101 99.4939738 -55.40234375 98.46875 C-56.22605469 98.14003906 -57.04976562 97.81132812 -57.8984375 97.47265625 C-71.32169928 91.42067083 -81.69113666 80.57665728 -87.87890625 67.30078125 C-92.77411611 54.25275784 -93.62045156 38.55385241 -88.40234375 25.46875 C-88.02335938 24.50839844 -87.644375 23.54804687 -87.25390625 22.55859375 C-80.63160668 7.7254083 -68.55541972 -2.59068404 -53.63671875 -8.75390625 C-34.82573036 -15.29828857 -16.30053994 -10.38993766 0 0 Z " fill="#FDFDFD" transform="translate(260.40234375,33.53125)"/>
<path d="M0 0 C0.79719955 0.00222061 1.59439911 0.00444122 2.41575623 0.00672913 C3.31661453 0.00680466 4.21747284 0.00688019 5.14562988 0.00695801 C6.12478867 0.01211929 7.10394745 0.01728058 8.11277771 0.02259827 C9.11018478 0.02401321 10.10759186 0.02542816 11.13522339 0.02688599 C14.3348027 0.03250337 17.53431315 0.04505881 20.73387146 0.05775452 C22.89728191 0.06276728 25.06069345 0.06733057 27.22410583 0.07142639 C32.53988471 0.08247845 37.85562317 0.09923348 43.17137146 0.12025452 C43.19822241 2.59949253 43.21813693 5.07844291 43.23387146 7.55775452 C43.24225037 8.2648053 43.25062927 8.97185608 43.25926208 9.70033264 C43.26790734 11.50719011 43.22357157 13.31413054 43.17137146 15.12025452 C42.17137146 16.12025452 42.17137146 16.12025452 39.44871521 16.21791077 C38.34656677 16.2063092 37.24441833 16.19470764 36.10887146 16.18275452 C34.45178162 16.16921936 34.45178162 16.16921936 32.76121521 16.15541077 C31.90656677 16.1438092 31.05191833 16.13220764 30.17137146 16.12025452 C30.17359207 16.93235886 30.17581268 17.7444632 30.17810059 18.58117676 C30.19810217 26.218544 30.21334491 33.85589862 30.22318363 41.49328518 C30.22841177 45.4201411 30.23550815 49.34697546 30.24681091 53.27381897 C30.25764226 57.06039709 30.26364882 60.84695442 30.2662487 64.63354683 C30.26810251 66.08129771 30.27172227 67.5290474 30.27710152 68.97678947 C30.28431513 70.99782586 30.28477954 73.01888299 30.28489685 75.03993225 C30.28711746 76.19242966 30.28933807 77.34492706 30.29162598 78.53234863 C30.17137146 81.12025452 30.17137146 81.12025452 29.17137146 82.12025452 C22.57137146 82.12025452 15.97137146 82.12025452 9.17137146 82.12025452 C8.84137146 60.34025452 8.51137146 38.56025452 8.17137146 16.12025452 C4.87137146 15.79025452 1.57137146 15.46025452 -1.82862854 15.12025452 C-2.82862854 14.12025452 -2.82862854 14.12025452 -2.96144104 11.21400452 C-2.95886292 10.02806702 -2.95628479 8.84212952 -2.95362854 7.62025452 C-2.95620667 6.43431702 -2.95878479 5.24837952 -2.96144104 4.02650452 C-2.78580618 0.18320056 -2.78580618 0.18320056 0 0 Z " fill="#02F843" transform="translate(536.8286285400391,147.87974548339844)"/>
<path d="M0 0 C0.66 0 1.32 0 2 0 C2.33 2.97 2.66 5.94 3 9 C18.84 9 34.68 9 51 9 C51 14.94 51 20.88 51 27 C50.505 27.495 50.505 27.495 50 28 C46.04 28 42.08 28 38 28 C38 49.78 38 71.56 38 94 C35.09783292 94.96738903 33.5703176 95.07126595 30.5859375 94.9140625 C29.74289062 94.87023437 28.89984375 94.82640625 28.03125 94.78125 C26.71640625 94.70390625 26.71640625 94.70390625 25.375 94.625 C24.49070312 94.58117187 23.60640625 94.53734375 22.6953125 94.4921875 C16.12966721 94.12966721 16.12966721 94.12966721 15 93 C14.87624831 90.97585009 14.82202689 88.94742263 14.79467773 86.91967773 C14.7647599 84.96776772 14.7647599 84.96776772 14.73423767 82.97642517 C14.71725201 81.5454826 14.70037325 80.11453875 14.68359375 78.68359375 C14.66303094 77.2277008 14.64203466 75.77181391 14.62062073 74.31593323 C14.56533039 70.47727353 14.51595198 66.63855935 14.46777344 62.79980469 C14.41760909 58.88536712 14.36189664 54.97100904 14.30664062 51.05664062 C14.19897397 43.37116099 14.09754807 35.68561543 14 28 C13.37351562 28.01160156 12.74703125 28.02320313 12.1015625 28.03515625 C11.28429687 28.04417969 10.46703125 28.05320313 9.625 28.0625 C8.81289063 28.07410156 8.00078125 28.08570313 7.1640625 28.09765625 C5 28 5 28 3 27 C2.9845388 28.21482559 2.9845388 28.21482559 2.96876526 29.45419312 C2.87089635 37.07660716 2.76839719 44.69893804 2.66066074 52.32121849 C2.60543316 56.24015849 2.55201343 60.15910595 2.50268555 64.078125 C2.45503954 67.8582888 2.40269667 71.63836074 2.34705925 75.41841507 C2.32663676 76.86252183 2.30792349 78.30665377 2.29092598 79.7508049 C2.26687994 81.76931251 2.23626123 83.78773862 2.20532227 85.80615234 C2.18977798 86.95642914 2.1742337 88.10670593 2.15821838 89.2918396 C2 92 2 92 1 94 C-2.64581687 94.02887512 -6.29160463 94.04675585 -9.9375 94.0625 C-11.49887695 94.07506836 -11.49887695 94.07506836 -13.09179688 94.08789062 C-14.08115234 94.09111328 -15.07050781 94.09433594 -16.08984375 94.09765625 C-17.46450806 94.10551147 -17.46450806 94.10551147 -18.86694336 94.11352539 C-21 94 -21 94 -22 93 C-22.09520906 90.16959328 -22.12553631 87.36365007 -22.11352539 84.53295898 C-22.11367142 83.64523804 -22.11381744 82.75751709 -22.1139679 81.84289551 C-22.11326843 78.89393716 -22.10547448 75.94504113 -22.09765625 72.99609375 C-22.09579219 70.95728083 -22.09436823 68.91846746 -22.09336853 66.87965393 C-22.08954241 61.50215426 -22.07971132 56.12468142 -22.06866455 50.74719238 C-22.05845245 45.26440799 -22.05387134 39.78161928 -22.04882812 34.29882812 C-22.03808914 23.53254027 -22.02101159 12.76627236 -22 2 C-21.67 2 -21.34 2 -21 2 C-21 31.37 -21 60.74 -21 91 C-14.07 91.33 -7.14 91.66 0 92 C-0.05329468 87.92615967 -0.05329468 87.92615967 -0.10766602 83.77001953 C-0.22409481 74.8134009 -0.33492115 65.85671933 -0.4429636 56.8999958 C-0.50866591 51.46763434 -0.57627632 46.03531037 -0.64819336 40.60302734 C-0.71748114 35.36411111 -0.78182743 30.12515569 -0.84269524 24.8861351 C-0.86683778 22.88376523 -0.89278438 20.8814163 -0.92053413 18.87909317 C-0.9589904 16.08235196 -0.99112799 13.28560614 -1.02172852 10.48876953 C-1.03467453 9.65439362 -1.04762054 8.8200177 -1.06095886 7.96035767 C-1.11405216 2.22810432 -1.11405216 2.22810432 0 0 Z M4 12 C3.9010706 14.16480797 3.870289 16.33293785 3.875 18.5 C3.87242187 19.6859375 3.86984375 20.871875 3.8671875 22.09375 C3.66789781 24.89259422 3.66789781 24.89259422 5 26 C8.3 26.33 11.6 26.66 15 27 C15.33 48.78 15.66 70.56 16 93 C22.6 93 29.2 93 36 93 C37.29437595 91.93013147 37.29437595 91.93013147 37.12025452 89.41209412 C37.11803391 88.25959671 37.11581329 87.1070993 37.11352539 85.91967773 C37.11344986 84.61840439 37.11337433 83.31713104 37.11329651 81.97642517 C37.10818909 80.54548098 37.10297308 79.11453718 37.09765625 77.68359375 C37.09579203 76.2277074 37.09436815 74.77182043 37.09336853 73.31593323 C37.08954365 69.47720621 37.07971364 65.63851681 37.06866455 61.79980469 C37.05844978 57.88542184 37.05387077 53.97103294 37.04882812 50.05664062 C37.03809134 42.37107657 37.02101529 34.68554355 37 27 C37.85464844 27.01160156 38.70929687 27.02320313 39.58984375 27.03515625 C41.24693359 27.04869141 41.24693359 27.04869141 42.9375 27.0625 C44.03964844 27.07410156 45.14179687 27.08570313 46.27734375 27.09765625 C48.91447634 27.31262571 48.91447634 27.31262571 50 26 C50.07313567 23.46950598 50.09247527 20.96695163 50.0625 18.4375 C50.05798828 17.72658203 50.05347656 17.01566406 50.04882812 16.28320312 C50.03700864 14.52209987 50.01907263 12.76103964 50 11 C43.60962769 10.97472938 37.21926817 10.95716683 30.82885742 10.94506836 C28.65307127 10.94002692 26.47728853 10.93319393 24.30151367 10.92456055 C21.18146933 10.91248662 18.06146962 10.90676995 14.94140625 10.90234375 C13.96224747 10.89718246 12.98308868 10.89202118 11.97425842 10.88670349 C11.07340012 10.88662796 10.17254181 10.88655243 9.24438477 10.88647461 C8.44718521 10.884254 7.64998566 10.88203339 6.82862854 10.87974548 C4.98077719 10.79949544 4.98077719 10.79949544 4 12 Z " fill="#2ED057" transform="translate(530,137)"/>
<path d="M0 0 C2.31 0 4.62 0 7 0 C7.33 0.99 7.66 1.98 8 3 C8.99 3.33 9.98 3.66 11 4 C11 34.03 11 64.06 11 95 C15.29 95 19.58 95 24 95 C25.32 95.33 26.64 95.66 28 96 C28 75.87 28 55.74 28 35 C28.33 35 28.66 35 29 35 C29 55.46 29 75.92 29 97 C10 97 10 97 8 96 C7.67 65.31 7.34 34.62 7 3 C4.69 2.34 2.38 1.68 0 1 C0 0.67 0 0.34 0 0 Z " fill="#0EF24E" transform="translate(501,132)"/>
<path d="M0 0 C7.440829 0.55806217 12.74204941 4.39001051 17.75 9.6875 C22.93040682 15.97037326 25.70883188 22.84843341 25 31 C21.23699626 32.25433458 17.72789091 32.10695422 13.8125 32.0625 C13.06291016 32.05798828 12.31332031 32.05347656 11.54101562 32.04882812 C9.69397617 32.03706354 7.84697787 32.01912865 6 32 C5.74347656 31.31292969 5.48695313 30.62585938 5.22265625 29.91796875 C3.02655618 24.6452196 3.02655618 24.6452196 -0.87890625 20.6328125 C-7.25878133 18.1654575 -14.39599229 18.64840257 -21 20 C-23.83631725 21.24721152 -23.83631725 21.24721152 -26 23 C-26.83349951 25.95659873 -26.83349951 25.95659873 -26 29 C-23.62157423 31.40406384 -23.62157423 31.40406384 -21 33 C-25.75 32.25 -25.75 32.25 -28 30 C-28.1953125 27.8359375 -28.1953125 27.8359375 -28.125 25.375 C-28.10695313 24.55773437 -28.08890625 23.74046875 -28.0703125 22.8984375 C-28.04710937 22.27195312 -28.02390625 21.64546875 -28 21 C-27.34 21 -26.68 21 -26 21 C-26 20.34 -26 19.68 -26 19 C-17.29511615 16.64505558 -8.88633017 16.18646323 0 18 C0.99 18.66 1.98 19.32 3 20 C3 20.66 3 21.32 3 22 C3.99 22.33 4.98 22.66 6 23 C6.66 24.65 7.32 26.3 8 28 C12.95 28.33 17.9 28.66 23 29 C21.97066237 22.07536506 21.18825671 17.81766694 16 13 C14.9171875 12.7525 14.9171875 12.7525 13.8125 12.5 C13.214375 12.335 12.61625 12.17 12 12 C11.79375 11.071875 11.5875 10.14375 11.375 9.1875 C10.33085249 5.8691155 10.33085249 5.8691155 7.65625 4.71484375 C5.12434143 3.72270542 2.59440828 2.81374429 0 2 C0 1.34 0 0.68 0 0 Z " fill="#33D959" transform="translate(532,45)"/>
<path d="M0 0 C0.33 0 0.66 0 1 0 C1.02685095 2.47923801 1.04676547 4.9581884 1.0625 7.4375 C1.07087891 8.14455078 1.07925781 8.85160156 1.08789062 9.58007812 C1.09653588 11.38693559 1.05220011 13.19387603 1 15 C0 16 0 16 -2.72265625 16.09765625 C-3.82480469 16.08605469 -4.92695312 16.07445312 -6.0625 16.0625 C-7.71958984 16.04896484 -7.71958984 16.04896484 -9.41015625 16.03515625 C-10.26480469 16.02355469 -11.11945312 16.01195312 -12 16 C-11.99777939 16.81210434 -11.99555878 17.62420868 -11.99327087 18.46092224 C-11.97326929 26.09828948 -11.95802655 33.7356441 -11.94818783 41.37303066 C-11.94295969 45.29988658 -11.93586331 49.22672094 -11.92456055 53.15356445 C-11.9137292 56.94014257 -11.90772264 60.7266999 -11.90512276 64.51329231 C-11.90326895 65.96104319 -11.89964919 67.40879288 -11.89426994 68.85653496 C-11.88705633 70.87757135 -11.88659192 72.89862848 -11.88647461 74.91967773 C-11.884254 76.07217514 -11.88203339 77.22467255 -11.87974548 78.41209412 C-12 81 -12 81 -13 82 C-19.6 82 -26.2 82 -33 82 C-33.33 60.22 -33.66 38.44 -34 16 C-36.64 15.67 -39.28 15.34 -42 15 C-42 14.67 -42 14.34 -42 14 C-37.545 13.505 -37.545 13.505 -33 13 C-31.59392244 15.81215512 -31.88049514 18.1404422 -31.88647461 21.28564453 C-31.88632858 21.92967224 -31.88618256 22.57369995 -31.8860321 23.23724365 C-31.8867296 25.36913402 -31.89451434 27.50093737 -31.90234375 29.6328125 C-31.90420851 31.10968986 -31.90563214 32.58656784 -31.90663147 34.06344604 C-31.91045208 37.95312199 -31.92027848 41.84276067 -31.93133545 45.73242188 C-31.94155936 49.70051571 -31.94613119 53.66861555 -31.95117188 57.63671875 C-31.96190115 65.42449813 -31.97949427 73.2122391 -32 81 C-26.39 81 -20.78 81 -15 81 C-14.21494022 77.07470108 -13.88589044 74.12436454 -13.91821289 70.20336914 C-13.9247438 69.06190933 -13.93127472 67.92044952 -13.93800354 66.74440002 C-13.94943893 65.52034958 -13.96087433 64.29629913 -13.97265625 63.03515625 C-13.98530105 60.4355482 -13.99766212 57.83593875 -14.00976562 55.23632812 C-14.03349245 51.14359235 -14.06217598 47.05091681 -14.09594727 42.95825195 C-14.127966 39.00475338 -14.14392537 35.05125153 -14.16015625 31.09765625 C-14.17361588 29.87563004 -14.1870755 28.65360382 -14.20094299 27.39454651 C-14.20432175 26.24993454 -14.2077005 25.10532257 -14.21118164 23.92602539 C-14.22236778 22.42308678 -14.22236778 22.42308678 -14.23377991 20.88978577 C-13.9736038 17.67371295 -13.13018128 15.01170217 -12 12 C-6.06 12.99 -6.06 12.99 0 14 C0 9.38 0 4.76 0 0 Z " fill="#19EC4E" transform="translate(579,148)"/>
<path d="M0 0 C0.66 0 1.32 0 2 0 C2.33 2.97 2.66 5.94 3 9 C18.84 9 34.68 9 51 9 C51 14.94 51 20.88 51 27 C50.505 27.495 50.505 27.495 50 28 C46.04 28 42.08 28 38 28 C38 49.78 38 71.56 38 94 C35.07330309 94.97556564 33.55938679 95.0606341 30.55078125 94.87890625 C29.70322266 94.83056641 28.85566406 94.78222656 27.98242188 94.73242188 C27.10134766 94.67634766 26.22027344 94.62027344 25.3125 94.5625 C24.41982422 94.51029297 23.52714844 94.45808594 22.60742188 94.40429688 C20.4045844 94.2747182 18.20221127 94.13975754 16 94 C16 93.67 16 93.34 16 93 C25.9 92.505 25.9 92.505 36 92 C36.33 70.55 36.66 49.1 37 27 C40.96 26.67 44.92 26.34 49 26 C49 21.05 49 16.1 49 11 C47.55117432 11.00523682 46.10234863 11.01047363 44.60961914 11.01586914 C39.25545871 11.03391273 33.90130099 11.04542965 28.54711914 11.05493164 C26.22582549 11.05997333 23.90453503 11.06680651 21.58325195 11.07543945 C18.25471205 11.08751225 14.92621398 11.09322979 11.59765625 11.09765625 C10.03048607 11.10539818 10.03048607 11.10539818 8.43165588 11.11329651 C7.47073532 11.11337204 6.50981476 11.11344757 5.51977539 11.11352539 C4.66928116 11.115746 3.81878693 11.11796661 2.94252014 11.12025452 C1 11 1 11 0 10 C-1.20481928 2.40963855 -1.20481928 2.40963855 0 0 Z " fill="#43D46A" transform="translate(530,137)"/>
<path d="M0 0 C0.33 0 0.66 0 1 0 C1 29.37 1 58.74 1 89 C8.26 89.33 15.52 89.66 23 90 C23 90.66 23 91.32 23 92 C19.35418313 92.02887512 15.70839537 92.04675585 12.0625 92.0625 C10.50112305 92.07506836 10.50112305 92.07506836 8.90820312 92.08789062 C7.91884766 92.09111328 6.92949219 92.09433594 5.91015625 92.09765625 C4.53549194 92.10551147 4.53549194 92.10551147 3.13305664 92.11352539 C1 92 1 92 0 91 C-0.09520906 88.16959328 -0.12553631 85.36365007 -0.11352539 82.53295898 C-0.11367142 81.64523804 -0.11381744 80.75751709 -0.1139679 79.84289551 C-0.11326843 76.89393716 -0.10547448 73.94504113 -0.09765625 70.99609375 C-0.09579219 68.95728083 -0.09436823 66.91846746 -0.09336853 64.87965393 C-0.08954241 59.50215426 -0.07971132 54.12468142 -0.06866455 48.74719238 C-0.05845245 43.26440799 -0.05387134 37.78161928 -0.04882812 32.29882812 C-0.03808914 21.53254027 -0.02101159 10.76627236 0 0 Z " fill="#3ED468" transform="translate(508,139)"/>
<path d="M0 0 C27.85553293 3.33682067 27.85553293 3.33682067 37 12 C36.67 12.66 36.34 13.32 36 14 C35.46890625 13.72285156 34.9378125 13.44570312 34.390625 13.16015625 C33.68421875 12.79792969 32.9778125 12.43570313 32.25 12.0625 C31.55390625 11.70285156 30.8578125 11.34320313 30.140625 10.97265625 C28.09775567 10.04441818 26.18884624 9.46833422 24 9 C24 8.34 24 7.68 24 7 C21.02148438 7.09765625 21.02148438 7.09765625 18.04296875 7.1953125 C16 7 16 7 13 5 C10.16067398 4.70467634 7.34895231 4.62241295 4.49609375 4.5390625 C3.67238281 4.36117187 2.84867188 4.18328125 2 4 C0.84399414 1.96630859 0.84399414 1.96630859 0 0 Z " fill="#2DE165" transform="translate(511,78)"/>
<path d="M0 0 C3.375 -0.1875 3.375 -0.1875 7 0 C9.61615703 3.92423554 9.26556915 7.23538059 9.22705078 11.78588867 C9.22734283 12.68365524 9.22763489 13.58142181 9.22793579 14.50639343 C9.22654125 17.47701649 9.21097415 20.44738945 9.1953125 23.41796875 C9.19158281 25.4763424 9.18873563 27.53471782 9.18673706 29.59309387 C9.17909712 35.01334527 9.15944549 40.43348965 9.1373291 45.85369873 C9.11687847 51.38357088 9.10773702 56.91346031 9.09765625 62.44335938 C9.07619998 73.29561996 9.04205964 84.14780108 9 95 C8.67 95 8.34 95 8 95 C7.67 64.64 7.34 34.28 7 3 C4.69 2.34 2.38 1.68 0 1 C0 0.67 0 0.34 0 0 Z " fill="#1CEA53" transform="translate(501,132)"/>
<path d="M0 0 C1.18613892 0.00785522 1.18613892 0.00785522 2.39624023 0.01586914 C3.67724609 0.02070312 3.67724609 0.02070312 4.98413086 0.02563477 C5.88196289 0.03401367 6.77979492 0.04239258 7.70483398 0.05102539 C8.6065332 0.05553711 9.50823242 0.06004883 10.43725586 0.06469727 C12.67234712 0.07652315 14.90730835 0.09300319 17.14233398 0.11352539 C17.37307617 0.8005957 17.60381836 1.48766602 17.84155273 2.19555664 C19.76073987 7.81520145 19.76073987 7.81520145 23.64233398 12.11352539 C24.87983398 12.60852539 24.87983398 12.60852539 26.14233398 13.11352539 C26.90545898 13.50540039 27.66858398 13.89727539 28.45483398 14.30102539 C29.01170898 14.56915039 29.56858398 14.83727539 30.14233398 15.11352539 C22.95483398 14.63435872 22.95483398 14.63435872 19.70483398 12.55102539 C17.47804415 9.07723325 17.41570828 6.21413986 17.14233398 2.11352539 C9.22233398 2.60852539 9.22233398 2.60852539 1.14233398 3.11352539 C0.81233398 6.74352539 0.48233398 10.37352539 0.14233398 14.11352539 C0.80233398 14.11352539 1.46233398 14.11352539 2.14233398 14.11352539 C2.47233398 16.09352539 2.80233398 18.07352539 3.14233398 20.11352539 C-0.80820348 16.51709773 -2.55934137 12.14910947 -3.08032227 6.84790039 C-3.10440361 4.93515329 -2.9915752 3.02173128 -2.85766602 1.11352539 C-1.85766602 0.11352539 -1.85766602 0.11352539 0 0 Z " fill="#45DF70" transform="translate(485.857666015625,101.886474609375)"/>
<path d="M0 0 C0.33 0 0.66 0 1 0 C1 17.16 1 34.32 1 52 C0.01 51.67 -0.98 51.34 -2 51 C-1.88271126 43.89741338 -1.75787535 36.79498875 -1.62768555 29.69262695 C-1.58426122 27.27436361 -1.54259188 24.8560681 -1.50268555 22.43774414 C-1.44516397 18.97011604 -1.38141813 15.50265097 -1.31640625 12.03515625 C-1.29969376 10.94662857 -1.28298126 9.85810089 -1.26576233 8.73658752 C-1.24581711 7.73562546 -1.22587189 6.73466339 -1.20532227 5.70336914 C-1.18977798 4.81734512 -1.1742337 3.93132111 -1.15821838 3.01844788 C-1 1 -1 1 0 0 Z " fill="#EDECED" transform="translate(451,30)"/>
<path d="M0 0 C1.29442017 0.00616333 1.29442017 0.00616333 2.61499023 0.01245117 C4.01974609 0.01535156 4.01974609 0.01535156 5.45288086 0.01831055 C6.43321289 0.03055664 7.41354492 0.04280273 8.42358398 0.05541992 C9.4077832 0.05606445 10.39198242 0.05670898 11.40600586 0.05737305 C18.72090866 0.1027446 18.72090866 0.1027446 19.86108398 1.24291992 C19.9331391 2.92900958 19.94494466 4.61792651 19.92358398 6.30541992 C19.91456055 7.22452148 19.90553711 8.14362305 19.89624023 9.09057617 C19.88463867 9.80084961 19.87303711 10.51112305 19.86108398 11.24291992 C19.53108398 11.24291992 19.20108398 11.24291992 18.86108398 11.24291992 C18.36608398 6.78791992 18.36608398 6.78791992 17.86108398 2.24291992 C11.59108398 2.24291992 5.32108398 2.24291992 -1.13891602 2.24291992 C-1.13891602 5.21291992 -1.13891602 8.18291992 -1.13891602 11.24291992 C-4.31185079 14.31350196 -8.7665984 15.11032737 -12.92016602 16.41870117 C-16.06591315 17.58727977 -18.43691726 19.26584766 -21.13891602 21.24291992 C-21.79891602 21.57291992 -22.45891602 21.90291992 -23.13891602 22.24291992 C-20.98398989 16.77272282 -16.19422195 14.74118157 -11.13891602 12.24291992 C-8.45081841 11.32965599 -5.93991754 10.76162391 -3.13891602 10.24291992 C-3.34516602 8.96416992 -3.55141602 7.68541992 -3.76391602 6.36791992 C-4.11547852 4.18823242 -4.11547852 4.18823242 -4.13891602 2.24291992 C-2.13891602 0.24291992 -2.13891602 0.24291992 0 0 Z " fill="#37D561" transform="translate(512.138916015625,33.757080078125)"/>
<path d="M0 0 C1.32 0 2.64 0 4 0 C4.33 1.32 4.66 2.64 5 4 C6.65 4 8.3 4 10 4 C10.33 4.66 10.66 5.32 11 6 C14.02934491 6.65772428 14.02934491 6.65772428 17 7 C17 7.66 17 8.32 17 9 C18.59328125 9.07347656 18.59328125 9.07347656 20.21875 9.1484375 C35.32711969 9.91608478 35.32711969 9.91608478 41 12 C41.495 13.485 41.495 13.485 42 15 C37.74432949 14.32341559 33.49718042 13.60283447 29.25 12.875 C28.06277344 12.68679687 26.87554688 12.49859375 25.65234375 12.3046875 C17.14531286 10.81711926 6.97272787 8.75562011 1.16894531 1.80810547 C0.78319336 1.21143066 0.39744141 0.61475586 0 0 Z " fill="#3CE26A" transform="translate(491,88)"/>
<path d="M0 0 C7.5697114 0.56772836 12.83407745 4.45493339 17.8125 9.9375 C20.41616571 13.10122195 22.58694652 16.11410294 24 20 C23.5625 22.171875 23.5625 22.171875 23 24 C22.76925781 23.46890625 22.53851562 22.9378125 22.30078125 22.390625 C20.19568657 17.83097329 18.373641 14.76229958 14 12 C13.34 12 12.68 12 12 12 C11.87625 11.0925 11.7525 10.185 11.625 9.25 C9.39059419 4.78118837 6.68324327 4.25506777 2.1171875 2.6640625 C1.41851563 2.44492187 0.71984375 2.22578125 0 2 C0 1.34 0 0.68 0 0 Z " fill="#32E767" transform="translate(532,45)"/>
<path d="M0 0 C1.57657955 2.36486932 2.09744693 3.41531841 1.625 6.25 C1.41875 6.8275 1.2125 7.405 1 8 C0.690625 7.071875 0.38125 6.14375 0.0625 5.1875 C-2.41320511 1.36141028 -3.97728036 0.58826167 -8.2578125 -0.59765625 C-14.4792689 -1.51049102 -21.13344697 -1.37830153 -26.8515625 1.37109375 C-29.30534768 2.86289299 -29.30534768 2.86289299 -29.625 5.9375 C-29.26275975 9.20431081 -29.26275975 9.20431081 -26.5 11.375 C-25.675 11.91125 -24.85 12.4475 -24 13 C-28.75 12.25 -28.75 12.25 -31 10 C-31.1953125 7.8359375 -31.1953125 7.8359375 -31.125 5.375 C-31.10695313 4.55773437 -31.08890625 3.74046875 -31.0703125 2.8984375 C-31.04710937 2.27195312 -31.02390625 1.64546875 -31 1 C-30.34 1 -29.68 1 -29 1 C-29 0.34 -29 -0.32 -29 -1 C-20.08758753 -3.41108743 -8.0764432 -5.38429547 0 0 Z " fill="#44D86B" transform="translate(535,65)"/>
<path d="M0 0 C1.1684996 3.4824363 1.00352498 3.99133442 -0.5 7.6875 C-3.45332924 14.96968168 -0.79068854 22.64600725 1 30 C-2.7899961 26.58900351 -4.65528188 23.93010405 -5.2578125 18.80859375 C-5.56971953 12.16497399 -3.97496771 6.91409244 -1 1 C-0.67 0.67 -0.34 0.34 0 0 Z " fill="#49E16F" transform="translate(488,56)"/>
<path d="M0 0 C1.27423828 -0.00193359 1.27423828 -0.00193359 2.57421875 -0.00390625 C3.91419922 0.00189453 3.91419922 0.00189453 5.28125 0.0078125 C6.17457031 0.00394531 7.06789063 0.00007813 7.98828125 -0.00390625 C8.83777344 -0.00261719 9.68726563 -0.00132813 10.5625 0 C11.34689453 0.00112793 12.13128906 0.00225586 12.93945312 0.00341797 C14.78125 0.1328125 14.78125 0.1328125 15.78125 1.1328125 C16.01412008 2.81465198 16.19389166 4.5040541 16.34375 6.1953125 C16.46943359 7.57396484 16.46943359 7.57396484 16.59765625 8.98046875 C16.65824219 9.69074219 16.71882812 10.40101562 16.78125 11.1328125 C16.12125 11.1328125 15.46125 11.1328125 14.78125 11.1328125 C14.45125 8.4928125 14.12125 5.8528125 13.78125 3.1328125 C8.17125 2.8028125 2.56125 2.4728125 -3.21875 2.1328125 C-3.54875 4.1128125 -3.87875 6.0928125 -4.21875 8.1328125 C-4.54875 8.1328125 -4.87875 8.1328125 -5.21875 8.1328125 C-5.26116723 5.79986475 -5.25967937 3.46578683 -5.21875 1.1328125 C-3.66268249 -0.42325501 -2.15917629 0.00310481 0 0 Z " fill="#13E94C" transform="translate(515.21875,34.8671875)"/>
<path d="M0 0 C0.33 0 0.66 0 1 0 C1.02685095 2.47923801 1.04676547 4.9581884 1.0625 7.4375 C1.07087891 8.14455078 1.07925781 8.85160156 1.08789062 9.58007812 C1.09653588 11.38693559 1.05220011 13.19387603 1 15 C0 16 0 16 -2.72265625 16.09765625 C-3.82480469 16.08605469 -4.92695312 16.07445312 -6.0625 16.0625 C-7.71958984 16.04896484 -7.71958984 16.04896484 -9.41015625 16.03515625 C-10.26480469 16.02355469 -11.11945312 16.01195312 -12 16 C-12 18.97 -12 21.94 -12 25 C-12.33 25 -12.66 25 -13 25 C-14.0070238 19.96488101 -13.97387813 16.76052962 -12 12 C-6.06 12.99 -6.06 12.99 0 14 C0 9.38 0 4.76 0 0 Z " fill="#1BEB56" transform="translate(579,148)"/>
<path d="M0 0 C1.32 0.33 2.64 0.66 4 1 C4 1.99 4 2.98 4 4 C6.31 4.66 8.62 5.32 11 6 C10.67 6.66 10.34 7.32 10 8 C9.67 7.67 9.34 7.34 9 7 C0.63777505 5.39872288 -7.61376706 5.75759512 -16 7 C-15.67 6.34 -15.34 5.68 -15 5 C-12.41682273 4.60534792 -9.85811719 4.49193848 -7.25 4.34375 C-6.5075 4.2303125 -5.765 4.116875 -5 4 C-4.67 3.34 -4.34 2.68 -4 2 C-3.01 2 -2.02 2 -1 2 C-0.67 1.34 -0.34 0.68 0 0 Z " fill="#12F951" transform="translate(523,57)"/>
<path d="M0 0 C0.66 0.33 1.32 0.66 2 1 C-3.01601749 8.6570267 -8.85020537 13.92050122 -18 16 C-20.171875 15.5390625 -20.171875 15.5390625 -22 15 C-20.3767313 14.3291288 -18.75132422 13.66342971 -17.125 13 C-16.22007812 12.62875 -15.31515625 12.2575 -14.3828125 11.875 C-12 11 -12 11 -10 11 C-10 10.34 -10 9.68 -10 9 C-9.05125 8.7525 -8.1025 8.505 -7.125 8.25 C-3.94730532 7.32864702 -3.94730532 7.32864702 -2.75 5.0625 C-2.5025 4.381875 -2.255 3.70125 -2 3 C-1.34 2.01 -0.68 1.02 0 0 Z " fill="#3CE76D" transform="translate(553,120)"/>
<path d="M0 0 C1.93166016 0.01740234 1.93166016 0.01740234 3.90234375 0.03515625 C5.19269531 0.04417969 6.48304688 0.05320312 7.8125 0.0625 C8.81152344 0.07410156 9.81054688 0.08570312 10.83984375 0.09765625 C10.83984375 0.42765625 10.83984375 0.75765625 10.83984375 1.09765625 C4.40484375 1.59265625 4.40484375 1.59265625 -2.16015625 2.09765625 C-2.49015625 3.74765625 -2.82015625 5.39765625 -3.16015625 7.09765625 C-2.50015625 7.09765625 -1.84015625 7.09765625 -1.16015625 7.09765625 C-1.16015625 9.40765625 -1.16015625 11.71765625 -1.16015625 14.09765625 C-0.50015625 14.09765625 0.15984375 14.09765625 0.83984375 14.09765625 C1.16984375 16.07765625 1.49984375 18.05765625 1.83984375 20.09765625 C-2.11069371 16.50122859 -3.86183161 12.13324033 -4.3828125 6.83203125 C-4.40689385 4.91928415 -4.29406544 3.00586214 -4.16015625 1.09765625 C-3.16015625 0.09765625 -3.16015625 0.09765625 0 0 Z " fill="#4DD578" transform="translate(487.16015625,101.90234375)"/>
<path d="M0 0 C1.93166016 0.01740234 1.93166016 0.01740234 3.90234375 0.03515625 C5.19269531 0.04417969 6.48304688 0.05320313 7.8125 0.0625 C8.81152344 0.07410156 9.81054688 0.08570313 10.83984375 0.09765625 C10.83984375 0.42765625 10.83984375 0.75765625 10.83984375 1.09765625 C10.15277344 1.21882812 9.46570313 1.34 8.7578125 1.46484375 C7.85675781 1.63242188 6.95570313 1.8 6.02734375 1.97265625 C5.13402344 2.13507813 4.24070312 2.2975 3.3203125 2.46484375 C0.61256529 3.00954074 0.61256529 3.00954074 -2.16015625 5.09765625 C-2.89622124 8.66535177 -2.89622124 8.66535177 -3.16015625 12.09765625 C-3.49015625 12.09765625 -3.82015625 12.09765625 -4.16015625 12.09765625 C-4.18702904 10.28523573 -4.2064934 8.47270392 -4.22265625 6.66015625 C-4.23425781 5.65082031 -4.24585938 4.64148438 -4.2578125 3.6015625 C-4.11172173 -0.14420474 -3.82636297 0.1182436 0 0 Z " fill="#09F147" transform="translate(538.16015625,147.90234375)"/>
<path d="M0 0 C1.32 0.33 2.64 0.66 4 1 C4.29352352 4.05264456 4.4095865 6.95435678 4 10 C1.41172744 13.13730007 -0.36665244 13.85660055 -4.3125 14.75 C-8.23474288 15.01591477 -12.07025605 15.06894288 -16 15 C-16 14.67 -16 14.34 -16 14 C-14.86820313 13.80664062 -13.73640625 13.61328125 -12.5703125 13.4140625 C-11.08846798 13.15145714 -9.60670108 12.88841352 -8.125 12.625 C-7.37863281 12.49867187 -6.63226562 12.37234375 -5.86328125 12.2421875 C-1.49009468 11.54731306 -1.49009468 11.54731306 2 9 C2.34490322 4.94738713 2.30163882 3.45245824 0 0 Z " fill="#45D76D" transform="translate(533,103)"/>
<path d="M0 0 C3.91876847 3.49511782 6.86296759 6.8111616 8 12 C8.23383544 16.34628911 8.17651743 20.65244103 8 25 C7.67 25 7.34 25 7 25 C6.98582031 24.23816406 6.97164062 23.47632812 6.95703125 22.69140625 C6.6529864 16.10924608 5.77129282 11.48617037 2.15625 5.9375 C0.97121114 3.9517592 0.44340383 2.25732857 0 0 Z " fill="#49D970" transform="translate(549,91)"/>
<path d="M0 0 C0.33 0 0.66 0 1 0 C1.19504458 2.10348074 1.38078496 4.20782585 1.5625 6.3125 C1.66691406 7.48425781 1.77132812 8.65601562 1.87890625 9.86328125 C2 13 2 13 1 16 C0.01 16 -0.98 16 -2 16 C-2.33 16.66 -2.66 17.32 -3 18 C-2.67 15.03 -2.34 12.06 -2 9 C-1.34 9 -0.68 9 0 9 C0 6.03 0 3.06 0 0 Z " fill="#22EF4E" transform="translate(555,104)"/>
<path d="M0 0 C15.09010774 -0.27326151 15.09010774 -0.27326151 20 3 C21.57657955 5.36486932 22.09744693 6.41531841 21.625 9.25 C21.315625 10.11625 21.315625 10.11625 21 11 C20.690625 10.071875 20.38125 9.14375 20.0625 8.1875 C17.53627688 4.283337 15.83341706 3.73418457 11.49609375 2.5234375 C7.6673251 1.72053453 3.89988348 1.30951456 0 1 C0 0.67 0 0.34 0 0 Z " fill="#42E468" transform="translate(515,62)"/>
<path d="M0 0 C3.375 -0.1875 3.375 -0.1875 7 0 C9.49118953 3.7367843 9.2065226 5.74451819 9.125 10.1875 C9.10695313 11.45980469 9.08890625 12.73210937 9.0703125 14.04296875 C9.03550781 15.50669922 9.03550781 15.50669922 9 17 C8.67 17 8.34 17 8 17 C7.67 12.38 7.34 7.76 7 3 C4.69 2.34 2.38 1.68 0 1 C0 0.67 0 0.34 0 0 Z " fill="#2CE859" transform="translate(501,132)"/>
<path d="M0 0 C5.75908058 -0.20568145 10.50754063 0.16918021 16 2 C16.33 2.99 16.66 3.98 17 5 C8.585 3.02 8.585 3.02 0 1 C0 0.67 0 0.34 0 0 Z " fill="#32E95A" transform="translate(516,98)"/>
<path d="M0 0 C0.66 0.66 1.32 1.32 2 2 C-0.77457206 3.8497147 -1.94542264 4.30402134 -5.0625 4.875 C-8.35417533 5.56563156 -8.35417533 5.56563156 -10.5 8.125 C-10.665 8.74375 -10.83 9.3625 -11 10 C-11.66 9.67 -12.32 9.34 -13 9 C-12.0625 6.125 -12.0625 6.125 -10 3 C-7.65021253 2.12359278 -5.43815076 1.69700327 -2.9609375 1.32421875 C-1.001691 1.19578746 -1.001691 1.19578746 0 0 Z " fill="#13F551" transform="translate(541,129)"/>
<path d="M0 0 C5.70629354 0.42797202 9.41078616 2.84345952 14 6 C11 7 11 7 9.0625 6.2578125 C8.381875 5.88398437 7.70125 5.51015625 7 5.125 C4.63081282 3.84169028 2.57521017 2.85840339 0 2 C0 1.34 0 0.68 0 0 Z " fill="#3DDD71" transform="translate(532,45)"/>
<path d="M0 0 C-4.62 0.33 -9.24 0.66 -14 1 C-14.33 2.32 -14.66 3.64 -15 5 C-15.66 5 -16.32 5 -17 5 C-17.042721 3.33388095 -17.04063832 1.66617115 -17 0 C-15.13517642 -1.86482358 -12.13609405 -1.47408472 -9.625 -1.6875 C-8.46226562 -1.79449219 -7.29953125 -1.90148437 -6.1015625 -2.01171875 C-3 -2 -3 -2 0 0 Z " fill="#21DF60" transform="translate(501,104)"/>
<path d="M0 0 C6.75 3.5 6.75 3.5 9 8 C4.545 6.02 4.545 6.02 0 4 C0 2.68 0 1.36 0 0 Z " fill="#3BDE68" transform="translate(539,84)"/>
<path d="M0 0 C0.66 0.33 1.32 0.66 2 1 C-3.96583144 9.81548975 -3.96583144 9.81548975 -9 11 C-7.625 9 -7.625 9 -6 7 C-5.34 7 -4.68 7 -4 7 C-3.71125 6.401875 -3.4225 5.80375 -3.125 5.1875 C-2 3 -2 3 0 0 Z " fill="#47E872" transform="translate(553,120)"/>
<path d="M0 0 C1.12377697 3.30435084 0.89554742 5.0506862 -0.4375 8.25 C-0.72496094 8.95640625 -1.01242187 9.6628125 -1.30859375 10.390625 C-1.53675781 10.92171875 -1.76492188 11.4528125 -2 12 C-2.33 12 -2.66 12 -3 12 C-3.2954439 6.97745369 -2.98514628 4.10457614 0 0 Z " fill="#37E262" transform="translate(488,56)"/>
<path d="M0 0 C0.66 0 1.32 0 2 0 C2 3.63 2 7.26 2 11 C1.34 10.67 0.68 10.34 0 10 C-1.29411765 2.58823529 -1.29411765 2.58823529 0 0 Z " fill="#35E464" transform="translate(530,137)"/>
<path d="M0 0 C1.32 0.33 2.64 0.66 4 1 C4 3.97 4 6.94 4 10 C3.01 10 2.02 10 1 10 C1.33 9.67 1.66 9.34 2 9 C2.26293056 4.96839809 2.29404844 3.44107266 0 0 Z " fill="#47DE60" transform="translate(533,103)"/>
<path d="M0 0 C2.97 1.98 2.97 1.98 6 4 C5.01 4.495 5.01 4.495 4 5 C3.67 5.99 3.34 6.98 3 8 C0 3.375 0 3.375 0 0 Z " fill="#22F15C" transform="translate(487,80)"/>
</svg>
